<?xml version="1.0" encoding="utf-8"?>
<!-- Generator: Adobe Illustrator 22.0.1, SVG Export Plug-In . SVG Version: 6.00 Build 0)  -->
<svg version="1.1" id="Layer_2_1_" xmlns="http://www.w3.org/2000/svg" xmlns:xlink="http://www.w3.org/1999/xlink" x="0px" y="0px"
	 viewBox="0 0 449.9 515" style="enable-background:new 0 0 449.9 515;" xml:space="preserve">
<style type="text/css">
	.st0{fill:#DDE8E8;}
	.st1{fill:#FFDF8F;}
	.st2{fill:#EDAB26;}
	.st3{fill:#F7C745;}
	.st4{fill:#FFFFFF;}
	.st5{fill:#D2D8D8;}
	.st6{fill:none;stroke:#59B0BF;stroke-width:5;stroke-linecap:round;stroke-linejoin:round;}
	.st7{fill:none;stroke:#15383F;stroke-width:5;stroke-linecap:round;stroke-linejoin:round;}
	.st8{clip-path:url(#SVGID_2_);}
	.st9{fill:none;stroke:#D2D8D8;stroke-width:5;stroke-linejoin:round;}
	.st10{fill:none;stroke:#DCF2F4;stroke-width:5;stroke-linejoin:round;}
	.st11{fill:#3B8A9D;}
	.st12{fill:#15383F;}
	.st13{fill:none;stroke:#DCF2F4;stroke-width:5;stroke-linecap:round;stroke-linejoin:round;}
	.st14{fill:#EA831C;}
	.st15{fill:#EF514D;}
</style>
<title>14_Checklist</title>
<polygon class="st0" points="0,404.7 189.8,515 438,371.5 223.9,276.6 "/>
<polygon class="st1" points="438.1,4.7 189.9,148.2 189.8,515 438,371.5 "/>
<polygon class="st2" points="189.8,515 182,510.5 182.1,143.6 189.9,148.2 "/>
<polygon class="st3" points="189.9,148.2 438.1,4.7 430.3,0 182.1,143.6 "/>
<polygon class="st3" points="417.3,49.3 204.8,171.4 200.1,179.5 200,497.9 417.2,373.1 "/>
<polygon class="st4" points="422.1,46.2 204.9,171 204.8,490.9 422.1,366.1 "/>
<path class="st5" d="M252.4,243.2l-12.9,7.4c-2.4,1.4-4.3,0.2-4.3-2.5V228c0.2-3.1,1.8-5.8,4.3-7.5l12.9-7.4
	c2.4-1.4,4.3-0.2,4.3,2.5v20.1C256.5,238.7,254.9,241.5,252.4,243.2z"/>
<line class="st6" x1="273.2" y1="209.2" x2="386.1" y2="144.3"/>
<line class="st6" x1="273.2" y1="223.1" x2="344.1" y2="182.3"/>
<polyline class="st7" points="240.9,231.7 247.2,237.5 259.5,208.7 "/>
<path class="st5" d="M252.4,324.7l-12.9,7.4c-2.4,1.4-4.3,0.2-4.3-2.5v-20c0.2-3.1,1.8-5.8,4.3-7.5l12.9-7.5
	c2.4-1.4,4.3-0.2,4.3,2.5v20.1C256.5,320.2,254.9,323,252.4,324.7z"/>
<line class="st6" x1="273.2" y1="290.7" x2="386.1" y2="225.8"/>
<line class="st6" x1="273.2" y1="304.5" x2="344" y2="263.8"/>
<polyline class="st7" points="240.8,313.2 247.1,319 259.4,290.2 "/>
<path class="st5" d="M252.3,406.2l-12.9,7.4c-2.4,1.4-4.3,0.2-4.3-2.5V391c0.2-3.1,1.8-5.8,4.3-7.5l12.9-7.4
	c2.4-1.4,4.3-0.2,4.3,2.5v20.1C256.5,401.7,254.9,404.5,252.3,406.2z"/>
<line class="st6" x1="273.2" y1="372.2" x2="386.1" y2="307.3"/>
<line class="st6" x1="273.2" y1="386.1" x2="344" y2="345.3"/>
<g>
	<defs>
		<polygon id="SVGID_1_" points="422.1,46.2 204.9,171 204.8,490.9 422.1,366.1 		"/>
	</defs>
	<clipPath id="SVGID_2_">
		<use xlink:href="#SVGID_1_"  style="overflow:visible;"/>
	</clipPath>
	<g class="st8">
		<polyline class="st9" points="268.8,124.9 268.8,158.8 358.2,107.1 358.2,73.2 		"/>
	</g>
</g>
<polygon class="st10" points="362,68.4 272.6,120.1 272.6,154 362,102.3 "/>
<ellipse transform="matrix(0.9198 -0.3923 0.3923 0.9198 -4.5629 139.8524)" class="st11" cx="339.9" cy="81.1" rx="3.5" ry="5.7"/>
<polygon class="st11" points="291.8,102.4 337.7,75.9 342.1,86.3 296.2,112.8 "/>
<ellipse transform="matrix(0.9198 -0.3923 0.3923 0.9198 -18.6387 123.9787)" class="st12" cx="294" cy="107.6" rx="3.5" ry="5.7"/>
<line class="st13" x1="284.9" y1="113" x2="292.2" y2="108.8"/>
<polygon class="st5" points="399.2,158.7 399.2,379.2 408.5,373.9 408.5,155.1 "/>
<polygon class="st3" points="394.6,384.6 394.6,396.6 403.9,391.3 403.9,379.2 "/>
<path class="st12" d="M446,416.4l0.9-5.7l-4.5,0.7l2.5,5.2c0.1,0.2,0.3,0.3,0.5,0.3h0.2C445.9,416.8,446,416.6,446,416.4z"/>
<path class="st1" d="M447,410.8l2.9-18.9c0.2-1.5-0.8-2.9-2.1-2.7l-12.5,1.8c-1.2,0.2-1.8,1.8-1.2,3.2l8.3,17.3
	c0.4,1.1,1.5,1.7,2.6,1.6l0,0C446.1,412.9,446.9,411.9,447,410.8z"/>
<path class="st3" d="M449.8,390.9l-32.7-221.7c-0.8-5.5-5-9.4-9.4-8.7h-0.2c-4.4,0.6-7.2,5.6-6.4,11.1l32.7,221.7
	c0,0,1.7,5.3,8.8,4.3C449.9,396.4,449.8,390.9,449.8,390.9z"/>
<path class="st14" d="M440,397.6l-34.9-236.2c-2.9,1.8-4.6,5.8-4,10.1l32.7,221.7C434.9,395.7,437.3,397.4,440,397.6z"/>
<path class="st2" d="M440,397.6c0.9,0.1,1.8,0.1,2.7-0.1c0.9-0.1,1.8-0.4,2.6-0.7l-34.9-236.2c-0.9-0.2-1.8-0.3-2.7-0.2h-0.2
	c-0.9,0.1-1.7,0.5-2.5,0.9L440,397.6z"/>
<path class="st12" d="M417.6,172.3l-1.6-11c-0.6-3.8-3.5-6.6-6.5-6.1l-4.9,0.7c-3,0.5-5.1,3.9-4.5,7.7l1.6,11c0,0,1.7,5.3,8.8,4.3
	C417.7,177.8,417.6,172.3,417.6,172.3z"/>
<path class="st15" d="M399.2,158.7l1.4,9.8c0,0,1.7,5.3,8.8,4.3c7.3-1.1,7.2-6.6,7.2-6.6l-1.4-9.8c-0.5-3.3-3.5-5.5-6.8-5.1
	l-4.1,0.6C401,152.3,398.7,155.4,399.2,158.7z"/>
<polygon class="st0" points="421.4,411.9 394.6,396.6 403.9,391.3 430.4,405.3 445.4,416.9 "/>
</svg>
