<?xml version="1.0" encoding="utf-8"?>
<!-- Generator: Adobe Illustrator 22.0.1, SVG Export Plug-In . SVG Version: 6.00 Build 0)  -->
<svg version="1.1" id="Layer_2_1_" xmlns="http://www.w3.org/2000/svg" xmlns:xlink="http://www.w3.org/1999/xlink" x="0px" y="0px"
	 viewBox="0 0 750.1 623.3" style="enable-background:new 0 0 750.1 623.3;" xml:space="preserve">
<style type="text/css">
	.st0{fill:#DDE8E8;}
	.st1{fill:url(#SVGID_1_);}
	.st2{fill:url(#SVGID_2_);}
	.st3{fill:#A1581B;}
	.st4{fill:#59B0BF;}
	.st5{fill:#EDAB26;}
	.st6{fill:#FFDF8F;}
	.st7{fill:#EFC878;}
	.st8{fill:#EF514D;}
	.st9{fill:#15383F;}
	.st10{fill:#FFFFFF;}
	.st11{fill:#478455;}
	.st12{fill:#345B3B;}
	.st13{fill:#EA831C;}
	.st14{fill:#DDBB70;}
	.st15{fill:none;stroke:#A1581B;stroke-width:2;stroke-linecap:round;stroke-miterlimit:10;}
	.st16{fill:#874514;}
	.st17{fill:#A6DCE7;}
	.st18{fill:#77BC69;}
	.st19{fill:#184B54;}
	.st20{fill:none;}
	.st21{fill:#5E3113;}
	.st22{fill:url(#SVGID_3_);}
	.st23{fill:url(#SVGID_4_);}
	.st24{fill:#D8671A;}
	.st25{fill:#AAE2AA;}
	.st26{fill:none;stroke:#15383F;stroke-width:2;stroke-linecap:round;stroke-miterlimit:10;}
	.st27{fill:none;stroke:#EA831C;stroke-width:2;stroke-linecap:round;stroke-miterlimit:10;}
	.st28{fill:none;stroke:#15383F;stroke-width:3;stroke-linecap:round;stroke-miterlimit:10;}
	.st29{fill:#C63838;}
	.st30{fill:#A32424;}
	.st31{fill:url(#SVGID_5_);}
	.st32{fill:url(#SVGID_6_);}
	.st33{fill:#F7C745;}
	.st34{fill:none;stroke:#C63838;stroke-width:2;stroke-miterlimit:10;}
	.st35{fill:none;stroke:#C63838;stroke-width:2;stroke-linecap:round;stroke-miterlimit:10;}
	.st36{clip-path:url(#SVGID_8_);}
</style>
<title>41_Customer_Segments</title>
<ellipse transform="matrix(1.832498e-02 -0.9998 0.9998 1.832498e-02 -5.763 688.4004)" class="st0" cx="347.7" cy="347.1" rx="69.9" ry="140.4"/>
<linearGradient id="SVGID_1_" gradientUnits="userSpaceOnUse" x1="553.8419" y1="265.5109" x2="267.4218" y2="265.5109" gradientTransform="matrix(1 0 0 -1 0 625.24)">
	<stop  offset="1.000000e-02" style="stop-color:#3B8A9D"/>
	<stop  offset="1" style="stop-color:#15383F"/>
</linearGradient>
<path class="st1" d="M542.8,343.5c-0.7,38.6-64.1,68.8-141.7,67.4S261.3,377,262,338.4l-0.7-29.8l280.8,1.1L542.8,343.5z"/>
<linearGradient id="SVGID_2_" gradientUnits="userSpaceOnUse" x1="261.2293" y1="314.1006" x2="542.0741" y2="314.1006" gradientTransform="matrix(1 0 0 -1 3.893279e-02 625.235)">
	<stop  offset="0" style="stop-color:#59B0BF"/>
	<stop  offset="0.5" style="stop-color:#A6DCE7"/>
	<stop  offset="1" style="stop-color:#DCF2F4"/>
</linearGradient>
<path class="st2" d="M261.3,308.6c0.7-38.6,64.1-68.8,141.7-67.4c77.5,1.4,139.8,33.9,139.1,72.5s-64.1,68.8-141.7,67.4
	C322.9,379.6,260.6,347.2,261.3,308.6z"/>
<path class="st3" d="M363.7,57.5c1.5,0.8,5,4,1.1,9.1s-3.1,6.3-3.1,7.4c0,0-4.5-3.2-4.7-5.7s1.5-6.9,0.4-9.4s-5.5-3.9-5.5-8l-3.7-3
	V16.1l12.9-2.2l0.6,4.1c0,0,3.1,4.6,1,9c-1.1,2.2-1.1,4.8,0.1,7c2,4.1,1.6,6.2-0.1,10.6C360.2,50.9,367.1,53.7,363.7,57.5"/>
<ellipse class="st4" cx="356.1" cy="288.7" rx="48.7" ry="21.8"/>
<polygon class="st5" points="329.8,74.7 316.5,61.1 336.1,51.2 352.1,50.9 370,61 364.1,61.6 "/>
<path class="st6" d="M372.4,107.5l1.2-40.1c-0.3-3.8-3.5-6.6-7.3-6.3c0,0-0.1,0-0.1,0l0,0c-3.8,0.2-6.8,3.3-6.8,7.2l2,41.7
	l11.7,42.1l6-5.9L372.4,107.5z"/>
<path class="st7" d="M359.5,68.2c0-0.3,0-0.5,0-0.8c1.1-2.9,3.8-4.9,6.9-5.1l0,0c3-0.2,5.8,1.4,7.2,4c0.1,0.3,0.1,0.7,0.1,1
	l-0.5,16.4c-2.1,1-4.3,1.6-6.6,1.8c-2.2,0.3-4.4-0.3-6.3-1.5L359.5,68.2z"/>
<path class="st5" d="M359.4,81.6l-0.6-13.7c-0.1-4.1,3.2-7.5,7.2-7.6l0,0c4-0.3,7.5,2.6,7.9,6.6c0,0,0,0.1,0,0.1l0.6,13.7
	c0,0-2.8,2.4-8.4,2.8C363.7,83.8,361.3,83.1,359.4,81.6z"/>
<path class="st6" d="M379.2,144.7c-1-0.7-2.4-0.7-3.5-0.1c-4.7,2.8-6.7,9.9-4.6,17.1c1.8,6.1,6.1,10.6,10.7,11.7
	c1.6,0.3,3.2-0.7,3.6-2.3c0.1-0.5,0.1-1-0.1-1.5l-4.1-13.9c-0.3-1.1,0.3-2.2,1.4-2.5c0.6-0.2,1.1-0.1,1.6,0.2l0.4,0.3
	c1.1,0.7,2.5,0.4,3.2-0.7c0.1-0.2,0.2-0.4,0.3-0.5c0.3-1-0.1-2.1-1-2.6L379.2,144.7z"/>
<path class="st8" d="M355.7,265.3l-1.2,4c-0.1,1,0.5,2,1.5,2.4l22.8,10.6c1.3,0.6,2.9,0.5,4.1-0.3l4.9-3.5c1.1-0.7,1.3-2.1,0.6-3.2
	c-0.2-0.3-0.5-0.6-0.9-0.8l-19.6-10.8l-0.8-10.6l-10.6-0.4L355.7,265.3z"/>
<path class="st9" d="M387.6,278.5l-4.9,3.5c-1.2,0.8-2.7,1-4.1,0.4l-22.8-10.7c-0.5-0.2-1-0.7-1.2-1.2l-0.1,1.7
	c-0.1,1,0.5,2,1.5,2.4l22.8,10.6c1.3,0.6,2.9,0.5,4.1-0.3l4.9-3.5c1-0.7,1.3-2.1,0.7-3.1c-0.1-0.1-0.1-0.2-0.2-0.2
	C388,278.2,387.8,278.3,387.6,278.5z"/>
<path class="st10" d="M367.8,270.8c-0.5,0-0.8-0.4-0.8-0.8c0-0.1,0-0.3,0.1-0.4c2.5-4.3,6.3-4.1,6.5-4.1c0.5,0,0.8,0.4,0.8,0.9
	c0,0.5-0.4,0.8-0.9,0.8l0,0c-0.1,0-3-0.1-5,3.3C368.4,270.6,368.1,270.8,367.8,270.8z"/>
<path class="st10" d="M371.3,272.6c-0.5,0-0.8-0.4-0.8-0.8c0-0.1,0-0.3,0.1-0.4c2.5-4.3,6.3-4.1,6.5-4.1c0.5,0,0.8,0.4,0.8,0.9
	c0,0,0,0,0,0c0,0.5-0.4,0.8-0.9,0.8c-0.1,0-3-0.1-5,3.3C371.8,272.5,371.6,272.6,371.3,272.6z"/>
<path class="st10" d="M374.9,274.7c-0.5,0-0.8-0.4-0.8-0.8c0-0.1,0-0.3,0.1-0.4c1.2-2.5,3.7-4,6.5-4.1c0.5,0,0.8,0.4,0.8,0.9
	c0,0,0,0,0,0c0,0.4-0.4,0.8-0.9,0.8c-0.1,0-3-0.1-5,3.3C375.5,274.6,375.2,274.7,374.9,274.7z"/>
<path class="st11" d="M368.3,262.8c0,0-6.9,3.7-13.9,0.7l-13.1-115.9l15.9-19.1l9.6,4.1L368.3,262.8z"/>
<path class="st8" d="M320.7,281.9l-1.6,4.5c-0.1,1.2,0.5,2.3,1.5,2.8l25.3,13.3c1.5,0.8,3.2,0.7,4.6-0.2l5.8-3.7
	c1.3-0.7,1.7-2.3,0.9-3.6c-0.2-0.4-0.6-0.8-1-1l-21.7-13.4l-0.4-12.1l-12.1-1L320.7,281.9z"/>
<path class="st9" d="M356.4,298.6l-5.8,3.7c-1.4,0.9-3.2,1-4.6,0.2l-25.3-13.3c-0.6-0.3-1.1-0.8-1.4-1.4l-0.3,1.9
	c-0.1,1.2,0.5,2.3,1.5,2.8l25.3,13.3c1.5,0.8,3.2,0.7,4.6-0.2l5.8-3.7c1.2-0.7,1.6-2.3,0.9-3.5c-0.1-0.1-0.1-0.2-0.2-0.3
	C356.8,298.3,356.6,298.5,356.4,298.6z"/>
<path class="st10" d="M334.3,288.6c-0.5,0-0.8-0.4-0.8-0.8c0-0.1,0-0.3,0.1-0.4c3-4.7,7.3-4.3,7.5-4.3c0.4,0.1,0.8,0.5,0.7,0.9
	c-0.1,0.4-0.4,0.7-0.8,0.7c-0.1,0-3.5-0.2-5.9,3.5C334.9,288.5,334.6,288.6,334.3,288.6z"/>
<path class="st10" d="M338.1,290.9c-0.5,0-0.8-0.4-0.8-0.8c0-0.1,0-0.3,0.1-0.4c3-4.7,7.3-4.3,7.5-4.3c0.4,0.1,0.8,0.5,0.7,0.9
	c-0.1,0.4-0.4,0.7-0.8,0.7c-0.2,0-3.5-0.2-5.9,3.5C338.7,290.8,338.4,290.9,338.1,290.9z"/>
<path class="st10" d="M342.2,293.6c-0.5,0-0.8-0.4-0.8-0.8c0-0.1,0-0.3,0.1-0.4c3-4.7,7.3-4.3,7.5-4.3c0.4,0.1,0.8,0.5,0.7,0.9
	c-0.1,0.4-0.4,0.7-0.8,0.7c-0.1,0-3.5-0.2-5.9,3.5C342.7,293.4,342.4,293.6,342.2,293.6z"/>
<path class="st12" d="M318,136.9l0.1,6.7c0,3.7,0.5,7.3,1.3,10.9l0.8,3.6c0.6,2.4,0.8,4.9,0.8,7.4l-0.8,113.5c0,0,7.4,4.4,15,0.7
	l13.2-138.7l-11.6-11.9L318,136.9z"/>
<polygon class="st12" points="341.8,139.3 339.1,155.8 345.5,161.5 363.7,145.4 "/>
<path class="st5" d="M352.1,50.9l-6.5-1.4l0,0c-9.4,0.5-19.7,8.4-26,22.3L318,80c0,0,7.9,14.4,4.2,29.3c-2.1,8.7-6,21.7-6,31.5v3.9
	c0,0,35.7,13.6,51.8-2.9c0,0-0.4-9.4-1.6-20.8c-1.1-10.8-1.9-20.9,0-26.7c1-3.2,1.1-2.7,2.8-7.2c2.5-6.6-1.6-14.8-5.1-19.7
	c-2.5-3.6-2.9-11.2-2.9-11.2L352.1,50.9z"/>
<path class="st13" d="M324.3,72.8l-5.5,2.7l-0.8,4.6c0,0,7.9,14.4,4.2,29.3c-2.1,8.7-6,21.7-6,31.5v3.9c5.4,1.9,11,3.4,16.6,4.3
	c-4.3-10.1-5.8-21.1-4.4-32c2.5-20,13-23.2,13-23.2C324.8,94.2,324.3,72.8,324.3,72.8z"/>
<path class="st6" d="M349.9,69.8c-5.2,0.9-13.5-5.5-15.2-12.8c-1-4,2.9-8.1,8-9c5.4-0.9,10.7,2.4,12.1,7.8
	C355.8,59.8,355.1,68.9,349.9,69.8z"/>
<path class="st6" d="M316,119.2l10.2-49.6c0.5-3.9-2.1-7.5-6-8.1l0,0c-3.9-0.5-7.5,2.1-8,6l-7.3,51.9l0.8,48l7-4.9L316,119.2z"/>
<path class="st7" d="M312.1,67.6c0-0.3,0.1-0.6,0.2-0.8c1.5-2.8,4.6-4.3,7.7-3.9l0,0c3,0.4,5.5,2.7,6.2,5.6c0,0.4,0,0.7-0.1,1.1
	l-3.5,16.9c-2.3,0.6-4.7,0.8-7.1,0.5c-2.2-0.2-4.3-1.2-5.9-2.9L312.1,67.6z"/>
<path class="st5" d="M309.4,81.4l2.1-14.3c0.6-4.1,4.4-7,8.6-6.4l0,0c4.1,0.6,7,4.4,6.4,8.6l-2.1,14.3c0,0-3.2,1.9-8.8,1.2
	C313.2,84.7,310.9,83.4,309.4,81.4z"/>
<path class="st6" d="M313.8,163.6c-0.6-1.1-1.7-1.8-2.9-1.8c-5.4,0.1-10.7,5.3-12.5,12.6c-1.5,6.2,0.1,12.2,3.5,15.5
	c1.3,1.1,3.1,0.9,4.2-0.3c0.3-0.4,0.5-0.8,0.6-1.3l3.3-14.1c0.3-1.1,1.3-1.7,2.4-1.5c0.6,0.1,1.1,0.5,1.3,1l0.2,0.5
	c0.6,1.1,2,1.6,3.1,1c0.2-0.1,0.4-0.2,0.5-0.4c0.8-0.7,0.9-1.9,0.4-2.8L313.8,163.6z"/>
<rect x="336.1" y="39.1" class="st6" width="16" height="17.6"/>
<path class="st14" d="M352.1,48.9c-1.2,0.4-2.5,0.6-3.8,0.6l0,0c-5.7,0-10.8-3.7-12.6-9.2v-1.2h16.4V48.9z"/>
<path class="st6" d="M347,4.1c-7.3,0-13.2,5.9-13.2,13.2V34c-0.2,7.3,5.6,13.4,12.9,13.6c7.3,0.2,13.4-5.6,13.6-12.9
	c0-0.2,0-0.5,0-0.7V17.3C360.2,10,354.3,4.1,347,4.1z"/>
<path class="st3" d="M358.7,5.4c2.4,1.6,4,4.1,4.3,7c0.2,2.4,0.4,5.8-2.3,5.9s-4.5,0.9-8.2-1.7c-4.5-3.1-7.3-3.9-11.3-3.4
	c-2,0.3-3.5,2.1-3.4,4.2c0.4,6.2-2.9,9.7-4,12.2l0.2,4.7c0,2.6,0.8,5,2.2,7.2l-0.1,9.7l-15.3,7.7c0,0,3.4-3.1,3.8-6.9
	c0.6-4.9-2.5-5.4-2.5-10.4c-0.1-5.9,5.9-4.4,2.3-14.6c-1.4-4.1,3.6-5.5,3.1-11.5S331.2,6,336.1,5c0,0,0.2-5,6.3-5
	S353.2,1.5,358.7,5.4z"/>
<path class="st6" d="M335.2,25.1c0.9,2.5,0.7,5-0.5,5.6s-2.9-1-3.9-3.5s-0.7-5,0.5-5.6S334.3,22.5,335.2,25.1z"/>
<ellipse class="st9" cx="347" cy="25.6" rx="1.3" ry="1.4"/>
<ellipse class="st9" cx="356.7" cy="25.6" rx="1.3" ry="1.4"/>
<path class="st15" d="M344.5,21.5c0.4-0.4,0.9-0.7,1.5-0.9c0.7-0.3,1.5-0.3,2.3-0.1"/>
<path class="st15" d="M359.8,21.7c-0.4-0.4-0.9-0.7-1.5-0.9c-0.7-0.3-1.5-0.3-2.3-0.1"/>
<path class="st14" d="M349.9,30.9c0,0.8,1.2,0.8,1.6,1.4s0.4,1,1.2,1s0.8-0.7,1.2-1.2s1.2-0.4,1.2-1.2c-0.8,0.3-1.6,0.4-2.4,0.4
	C351.7,31.2,350.8,31.1,349.9,30.9z"/>
<path class="st9" d="M345.8,35.8c-0.1,2.6,2,4.8,4.7,4.9c2.5,0.1,4.6-1.8,4.9-4.3L345.8,35.8z"/>
<path class="st8" d="M352.8,40.3c-0.8-1.9-3-2.7-4.9-1.9c-0.4,0.2-0.7,0.4-1,0.7C348.3,40.9,350.8,41.4,352.8,40.3z"/>
<ellipse class="st4" cx="454.7" cy="333.4" rx="48.6" ry="21.8"/>
<path class="st16" d="M473.2,147.8L467,99.6c0.1-5.5,4.5-9.9,10-9.8l0,0c5.5,0.1,9.9,4.5,9.8,10l1.7,55.3l-10.8,35.5
	c-0.1,0.7-0.8,1.1-1.5,1c-0.1,0-0.1,0-0.2-0.1l-7.3-2.9c-0.5-0.2-0.8-0.7-0.8-1.3L473.2,147.8z"/>
<path class="st16" d="M476.6,90.5L476.6,90.5c-3.8,0.2-7.3,2.4-9,5.8c-0.4,1.1-0.6,2.2-0.6,3.3l3,23.4c2.9,1.1,6,1.6,9.2,1.6
	c3,0,6-1,8.3-2.9l-0.7-21.9c0-1.6-0.4-3.1-1.1-4.5C483.7,92.2,480.2,90.4,476.6,90.5z"/>
<path class="st17" d="M481,88.7c3.7,1.5,6.2,5,6.5,9l1.5,20.1c0,0-3.8,3.5-11.5,4.3c-6.2,0.6-9.5-2.7-9.5-2.7l-1.5-20.1
	c-0.4-5.8,4-10.9,9.8-11.3l0,0C477.9,87.8,479.5,88.1,481,88.7"/>
<path class="st17" d="M481.6,89c-3.5-1.9-7.4-3.1-11.4-3.5l3.2,4.9L481.6,89z"/>
<path class="st18" d="M471.5,313.9l-15.1-5.5c-2.1-0.8-4.5-0.5-6.4,0.7c-1.1,0.7-2.3,1.5-3,1.9c-1.5,1.2-1.2,3.6-1.2,3.6
	c0,1.2,0.7,2.2,1.8,2.6l26.6,10.6c1.5,0.6,3.3,0.3,4.6-0.7l5.3-4.3c1.2-0.9,1.4-2.5,0.5-3.6c0,0-0.1-0.1-0.1-0.1
	c-0.7-0.9-1.2-2.1-1.2-3.2L483,308l-11.9,1L471.5,313.9z"/>
<path class="st9" d="M484.1,322.8l-5.3,4.3c-1.3,1-3,1.3-4.6,0.7l-26.5-10.6c-0.6-0.2-1.2-0.7-1.5-1.3l-0.1,2c0,1.2,0.7,2.2,1.8,2.6
	l26.5,10.6c1.5,0.6,3.3,0.3,4.6-0.7l5.3-4.3c1.1-0.8,1.4-2.5,0.5-3.6c-0.1-0.1-0.1-0.2-0.2-0.3C484.6,322.4,484.4,322.6,484.1,322.8
	z"/>
<path class="st10" d="M455.5,314.9c-0.5,0-0.8-0.4-0.8-0.8c0-0.1,0-0.2,0.1-0.4c2.5-5,6.8-5,7-5l0,0c0.5,0,0.8,0.4,0.8,0.8
	s-0.4,0.8-0.8,0.8c-0.2,0-3.5,0.1-5.5,4.1C456.1,314.7,455.8,314.9,455.5,314.9z"/>
<path class="st10" d="M459.6,316.3c-0.5,0-0.8-0.4-0.8-0.8c0-0.1,0-0.2,0.1-0.4c2.5-5,6.8-5,7-5l0,0c0.5,0,0.8,0.4,0.8,0.8
	s-0.4,0.8-0.8,0.8c-0.2,0-3.5,0.1-5.5,4.1C460.2,316.2,459.9,316.3,459.6,316.3z"/>
<path class="st10" d="M463.9,317.8c-0.5,0-0.8-0.4-0.8-0.8c0-0.1,0-0.2,0.1-0.4c2.5-5,6.8-5,7-5c0.4,0,0.8,0.4,0.8,0.8
	c0,0.5-0.4,0.8-0.8,0.8c0,0,0,0,0,0c-0.2,0-3.5,0.1-5.5,4.1C464.5,317.7,464.2,317.9,463.9,317.8z"/>
<path class="st19" d="M482.8,177.4l1.2,137.3c0,0-7.6,3.5-13.6-0.1l-15.4-139l16.1-5.7L482.8,177.4z"/>
<path class="st18" d="M438.2,329.9l-14.6-6.9c-2-1-4.4-0.9-6.4,0.1c-1.2,0.6-2.4,1.2-3.1,1.7c-1.6,1-1.5,3.5-1.5,3.5
	c-0.1,1.2,0.5,2.3,1.6,2.8l25.4,13c1.5,0.8,3.2,0.7,4.6-0.2l5.7-3.8c1.2-0.7,1.6-2.3,0.9-3.6c0,0-0.1-0.1-0.1-0.1
	c-0.6-1-0.9-2.2-0.9-3.3l0.3-7.8l-12-0.1L438.2,329.9z"/>
<path class="st9" d="M449.9,340l-5.7,3.8c-1.4,0.9-3.2,1-4.6,0.2l-25.4-13c-0.6-0.3-1.1-0.8-1.4-1.4l-0.2,1.9
	c-0.1,1.2,0.5,2.3,1.6,2.8l25.4,13c1.5,0.8,3.2,0.7,4.6-0.2l5.7-3.8c1.2-0.7,1.6-2.3,0.9-3.5c-0.1-0.1-0.1-0.2-0.2-0.3
	C450.4,339.6,450.2,339.8,449.9,340z"/>
<path class="st10" d="M422.3,329.4c-0.5,0-0.8-0.4-0.8-0.8c0-0.1,0-0.3,0.1-0.4c2.9-4.7,7.2-4.4,7.4-4.4c0.4,0,0.8,0.4,0.7,0.9
	c0,0.4-0.4,0.8-0.9,0.7c-0.2,0-3.5-0.2-5.9,3.6C422.8,329.2,422.6,329.4,422.3,329.4z"/>
<path class="st10" d="M426.2,331.2c-0.5,0-0.8-0.4-0.8-0.8c0-0.1,0-0.3,0.1-0.4c2.9-4.7,7.2-4.4,7.4-4.4c0.4,0,0.8,0.4,0.7,0.9
	c0,0.4-0.4,0.8-0.9,0.7c-0.2,0-3.5-0.2-5.9,3.6C426.8,331,426.5,331.2,426.2,331.2z"/>
<path class="st10" d="M430.3,333.1c-0.5,0-0.8-0.4-0.8-0.8c0-0.1,0-0.3,0.1-0.4c2.9-4.7,7.2-4.4,7.4-4.4c0.4,0.1,0.8,0.5,0.7,0.9
	c-0.1,0.4-0.4,0.7-0.8,0.7c-0.2,0-3.5-0.2-5.9,3.6C430.9,333,430.6,333.1,430.3,333.1z"/>
<path class="st9" d="M435.3,177.7l0.4,152.9c0,0,8.8,4.4,16.3,0.6l12.9-147.8l-14-12.5L435.3,177.7z"/>
<path class="st9" d="M482.9,193.1l-0.1-15.6l-27,3.4l-4.9,20.5C450.9,201.4,473.7,201.2,482.9,193.1z"/>
<path class="st17" d="M445.4,111.7l-13.7-12c9.9-7.5,21.6-12.4,33.8-14.4c0,0,11-1.3,16.2,8.2c1.7,3.1,2.8,7.4,2.8,13.2L445.4,111.7
	z"/>
<path class="st16" d="M441.9,59.8l-0.7,5.5c-0.1,1.1-1.1,1.9-2.2,1.7c0,0-0.1,0-0.1,0l-1.9-0.3c-1.1-0.2-1.8-1.2-1.6-2.3
	c0,0,0,0,0-0.1l0.3-1.5c0.4-1.9,1.5-3.6,3-4.9l0,0c0.9-0.7,2.1-0.6,2.8,0.3C441.8,58.7,442,59.2,441.9,59.8z"/>
<path class="st3" d="M464.4,74.3l-16.3-1l-0.4,17.3c0,0,3.2,2.5,11.3-0.4c5.3-1.9,5.1-4.7,5.1-4.7L464.4,74.3z"/>
<path class="st16" d="M448.1,73.3l-0.3,13.8c1.2,0.3,2.4,0.6,3.6,0.6l0,0c4.8,0.3,9.6-1.6,12.9-5.1l0.2-8.3L448.1,73.3z"/>
<line class="st20" x1="449.4" y1="66.7" x2="443.9" y2="63.8"/>
<path class="st3" d="M470,53.8c-0.3-8.9-7.8-15.9-16.7-15.7c-8.7,0.3-15.6,7.3-15.7,16l0.2,13.8c0.1,8.9,7.4,16.1,16.4,16l0,0
	c8.9-0.1,16.1-7.4,16-16.4L470,53.8z"/>
<path class="st21" d="M474,48c1.5,6.8-0.7,17.9-3.9,25.9c-2.5,6.1-9.2,7.5-12.7,7.1s-10-4.4-10.2-11.3l-4.2-2.4
	c-2.1-7,0.7-11.4,0.9-14.3s-3.3-4.1-6.1-3.9c0,0-1.6-0.5-1.1-3.1s5.3-13.1,19.5-11.9C471.9,35.5,474,48,474,48z"/>
<ellipse transform="matrix(0.3662 -0.9305 0.9305 0.3662 221.2924 457.7179)" class="st3" cx="446.6" cy="66.4" rx="5.1" ry="3.4"/>
<path class="st17" d="M485.6,187.9c0.4-5.7,0.4-11.3,0-17c-0.7-7.4-2.6-23.9-2.7-28.2c-0.1-5.5,2-24.8,2-27.7
	c-0.2-12.9-0.3-8.3-0.3-8.3l-18.4-14l-31,7.8l-0.8,94.7C434.4,195.2,463.6,202.8,485.6,187.9z"/>
<path class="st4" d="M434.4,195.2l0.8-88.4l0-6.1c0.8-0.2,1.5-0.3,2.3-0.3c5.8,0,10.6,4.6,10.6,10.5l0.2,20.1
	c-0.3,0.3-0.6,0.6-1,0.9v36l-4.6,28.6C439.9,196.3,437.1,195.9,434.4,195.2L434.4,195.2z"/>
<path class="st3" d="M427.2,156.8l0.3-48.6c0.8-5.4,5.8-9.2,11.2-8.4l0,0c5.4,0.8,9.2,5.8,8.4,11.2l-5.7,55l-11.3,42.4
	c-0.2,0.7-0.9,1-1.6,0.8c-0.1,0-0.1-0.1-0.2-0.1l-6.9-3.9c-0.5-0.3-0.7-0.8-0.6-1.4L427.2,156.8z"/>
<path class="st3" d="M429.4,202c-0.1-1.6-1.4-2.8-3-2.7c-0.5,0-1,0.2-1.5,0.5c-4.5,3.1-7.8,9.4-8,16.7c-0.3,8,3.1,15,8.1,18.2
	c1.8,1.1,4,0.5,5.1-1.3c0.3-0.6,0.5-1.2,0.5-1.9C430.7,224.1,429.4,202,429.4,202z"/>
<path class="st16" d="M438.2,100.5L438.2,100.5c-3.8-0.4-7.5,1.4-9.7,4.5c-0.5,1-0.8,2.1-1,3.2l-0.2,23.6c2.8,1.5,5.8,2.4,8.9,2.8
	c3,0.5,6.1-0.2,8.6-1.8l2.2-21.8c0.2-1.6,0.1-3.2-0.5-4.6C445.1,103.1,441.9,100.8,438.2,100.5z"/>
<path class="st17" d="M446.2,129.5l1.9-20c0.5-5.8-3.7-10.9-9.5-11.5l0,0c-5.8-0.5-10.9,3.7-11.5,9.5l-1.9,20c0,0,3.7,3.6,11.5,4.5
	C442.9,132.8,446.2,129.5,446.2,129.5z"/>
<ellipse transform="matrix(1.832498e-02 -0.9998 0.9998 1.832498e-02 -8.4157 1098.0237)" class="st0" cx="555" cy="553.3" rx="69.9" ry="140.4"/>
<linearGradient id="SVGID_3_" gradientUnits="userSpaceOnUse" x1="736.0619" y1="59.3709" x2="483.2318" y2="59.3709" gradientTransform="matrix(1 0 0 -1 0 625.24)">
	<stop  offset="1.000000e-02" style="stop-color:#3B8A9D"/>
	<stop  offset="1" style="stop-color:#15383F"/>
</linearGradient>
<path class="st22" d="M750.1,549.6c-0.7,38.6-64.1,68.8-141.7,67.4s-139.8-33.9-139.1-72.5l-0.7-29.8l280.8,1.1L750.1,549.6z"/>
<linearGradient id="SVGID_4_" gradientUnits="userSpaceOnUse" x1="468.4864" y1="107.9481" x2="749.3312" y2="107.9481" gradientTransform="matrix(1 0 0 -1 5.529292e-02 625.2449)">
	<stop  offset="0" style="stop-color:#59B0BF"/>
	<stop  offset="0.5" style="stop-color:#A6DCE7"/>
	<stop  offset="1" style="stop-color:#DCF2F4"/>
</linearGradient>
<path class="st23" d="M468.5,514.7c0.7-38.6,64.1-68.8,141.7-67.4c77.5,1.4,139.8,33.9,139.1,72.5s-64.1,68.8-141.7,67.4
	S467.8,553.3,468.5,514.7z"/>
<ellipse class="st4" cx="651.4" cy="494.4" rx="48.6" ry="21.8"/>
<path class="st24" d="M651.6,469.4l1.4,4.8c0.1,1.1-0.5,2.1-1.5,2.5l-23.4,11.8c-1.4,0.7-3,0.6-4.2-0.2l-5.2-3.5
	c-1.1-0.7-1.5-2.2-0.8-3.3c0.2-0.4,0.6-0.7,1-0.9l20.1-11.8c2.3-1.5,4.9-2.2,7.6-2.1C650.9,466.5,651.6,469.4,651.6,469.4z"/>
<path class="st9" d="M618.6,484.6l5.2,3.5c1.3,0.8,2.9,0.9,4.2,0.2l23.4-11.8c0.6-0.3,1-0.7,1.3-1.3l0.2,1.8
	c0.1,1.1-0.5,2.1-1.5,2.5l-23.4,11.8c-1.4,0.7-3,0.6-4.2-0.2l-5.2-3.5c-1.1-0.7-1.5-2.1-0.8-3.3c0.1-0.1,0.1-0.2,0.2-0.3
	C618.2,484.3,618.4,484.5,618.6,484.6z"/>
<path class="st10" d="M639,476c0.4,0,0.7-0.3,0.7-0.8c0-0.1,0-0.3-0.1-0.4c-2.6-4.3-6.6-4.1-6.8-4.1c-0.4,0-0.7,0.4-0.7,0.8
	s0.4,0.7,0.8,0.7c0.1,0,3.2-0.2,5.3,3.3C638.4,475.8,638.7,476,639,476z"/>
<path class="st10" d="M635.4,478c0.4,0,0.7-0.3,0.7-0.8c0-0.1,0-0.3-0.1-0.4c-2.6-4.3-6.6-4.1-6.8-4.1c-0.4,0-0.7,0.4-0.7,0.8
	s0.4,0.7,0.8,0.7l0,0c0.1,0,3.2-0.2,5.3,3.3C634.9,477.8,635.1,478,635.4,478z"/>
<path class="st10" d="M631.7,480.3c0.4,0,0.7-0.3,0.7-0.8c0-0.1,0-0.3-0.1-0.4c-2.6-4.3-6.6-4.1-6.8-4.1c-0.4,0-0.7,0.4-0.7,0.8
	s0.4,0.7,0.8,0.7c0.1,0,3.2-0.2,5.3,3.3C631.2,480.2,631.4,480.3,631.7,480.3z"/>
<path class="st5" d="M635.2,376.8l-1.1,27.4l5.9,63.8c0.1,0.6,0.3,1.3,0.8,1.7c1.2,1.2,2.8,1.8,4.4,1.6c1.3,0.1,2.7-0.2,3.8-0.9
	c0.8-0.6,1.3-1.5,1.3-2.5l-0.2-63.4l2.8-32.5L635.2,376.8z"/>
<path class="st24" d="M679.9,488.2l1.5,5.2c0.1,1.2-0.5,2.3-1.6,2.7L654.3,509c-1.5,0.7-3.2,0.6-4.6-0.3l-5.7-3.8
	c-1.2-0.8-1.6-2.4-0.9-3.6c0.3-0.4,0.6-0.7,1-1l22-12.9c2.5-1.6,5.4-2.4,8.3-2.3C679.2,485,679.9,488.2,679.9,488.2z"/>
<path class="st9" d="M644,504.9l5.7,3.8c1.4,0.9,3.1,1,4.6,0.3l25.5-12.8c0.6-0.3,1.1-0.8,1.4-1.4l0.2,1.9c0.1,1.2-0.5,2.3-1.6,2.7
	l-25.5,12.8c-1.5,0.7-3.2,0.6-4.6-0.3l-5.7-3.8c-1.2-0.7-1.6-2.3-0.8-3.5c0.1-0.1,0.1-0.2,0.2-0.3
	C643.5,504.5,643.7,504.7,644,504.9z"/>
<path class="st10" d="M666.1,495.4c0.5,0,0.8-0.4,0.8-0.8c0-0.2,0-0.3-0.1-0.4c-2.9-4.7-7.2-4.4-7.4-4.4c-0.4,0.1-0.8,0.5-0.7,0.9
	c0.1,0.4,0.4,0.7,0.8,0.7c0.2,0,3.5-0.2,5.8,3.7C665.6,495.2,665.8,495.4,666.1,495.4z"/>
<path class="st10" d="M662.3,497.5c0.5,0,0.8-0.4,0.8-0.8c0-0.2,0-0.3-0.1-0.4c-2.9-4.7-7.2-4.4-7.4-4.4c-0.4,0.1-0.8,0.5-0.7,0.9
	c0.1,0.4,0.4,0.7,0.8,0.7c0.2,0,3.5-0.2,5.8,3.7C661.7,497.4,662,497.5,662.3,497.5z"/>
<path class="st10" d="M658.2,500.1c0.5,0,0.8-0.4,0.8-0.8c0-0.2,0-0.3-0.1-0.4c-2.9-4.7-7.2-4.4-7.4-4.4c-0.4,0.1-0.8,0.5-0.7,0.9
	c0.1,0.4,0.4,0.7,0.8,0.7c0.2,0,3.5-0.2,5.8,3.7C657.7,499.9,657.9,500.1,658.2,500.1z"/>
<path class="st5" d="M659,396.9l2.4,26.8l5.8,63.2c0,0.6,0.3,1.2,0.7,1.6c1.3,1.4,3.1,2.1,5,2c1.7,0.1,3.3-0.4,4.7-1.4
	c0.6-0.5,1-1.3,1-2.2l0.7-64.8l2.2-40L659,396.9z"/>
<path class="st13" d="M635.2,376.8l-1,24.4c3.5,1.2,10.9,3.2,16.1,1.7l2.7-30.7L635.2,376.8z"/>
<path class="st19" d="M634.6,342.3l-1.1,55.9c0,0,12.1,4.9,19.1,2.1l9.9-59.6l-16.1-5.9L634.6,342.3z"/>
<path class="st13" d="M679.7,414.1l1.7-31.9L659,396.9l1.6,17.4C667.5,416.8,675.4,415.3,679.7,414.1z"/>
<path class="st9" d="M639.6,351.7l14.6,13.7l4.5,45c10.5,5.2,22.7-0.2,22.7-0.2l0.8-67.3L639.6,351.7z"/>
<polygon class="st25" points="649.7,257 665.5,262.4 672.6,276.9 685.9,263.2 666.8,253.1 650.4,252.1 "/>
<polygon class="st9" points="648.8,252.9 637.3,256.2 645.6,264.5 "/>
<path class="st5" d="M627.2,300.5l2.3-34.9c0.8-5,5.8-8.8,11.2-8.5l0,0c5.3,0.3,9,4.6,8.2,9.6l-5.3,33.2c-0.2,1.2-0.7,2.4-1.3,3.5
	l-27.1,45.1l-6.7-5.4L627.2,300.5z"/>
<path class="st13" d="M643.6,299.9l5.3-33.3c0.6-3.4-1.1-6.8-4-8.4c-1.8,0-3.8-0.1-5.8-0.1c-2.5,0-4.9,0.8-6.9,2.2
	c-1.4,1.4-2.4,3.2-2.7,5.2l-2.3,34.9l-11.1,25.2c2.1,3.2,5.5,5.3,9.2,5.9l16.9-28.1C642.9,302.3,643.4,301.1,643.6,299.9z"/>
<path class="st9" d="M643.8,305c1.5-2.4,2.5-5.2,2.8-8l4.8-40.9c0,0-5.5-0.3-11.2-0.3l0,0c-5.7,0-10.7,4.2-11,9.2l-0.4,6l-2,28.4
	l-10.4,22.4c0,0,4,8.1,12.6,7.4L643.8,305z"/>
<path class="st5" d="M611.3,341.9c1.2-0.2,2.5,0.3,3.2,1.3c3.2,4.4,2.1,11.8-2.7,17.5c-4.1,4.9-9.9,7.2-14.5,6.4
	c-1.6-0.4-2.6-2-2.3-3.6c0.1-0.5,0.3-0.9,0.6-1.3l9.3-11c0.7-0.8,0.6-2.1-0.2-2.8c-0.4-0.4-1-0.5-1.6-0.4l-0.5,0.1
	c-1.3,0.2-2.4-0.6-2.6-1.9c0-0.2,0-0.4,0-0.6c0.1-1,1-1.9,2-2L611.3,341.9z"/>
<path class="st25" d="M633.5,348.5c0,0,1.6-28.3,1.6-38.6c0-8.4-1.6-35.9-1.6-35.9c0-12.2,9.1-22.3,23.4-22.3l0,0
	c14.3,0,26,10,26,22.3v74.5c0,0.4-0.2,0.7-0.6,0.8c-4.2,1.7-27.5,11-48.3,0C633.7,349.1,633.5,348.8,633.5,348.5z"/>
<ellipse transform="matrix(0.9935 -0.1136 0.1136 0.9935 -25.0475 76.3399)" class="st5" cx="657.6" cy="258" rx="10.4" ry="7.5"/>
<path class="st18" d="M665.6,353.8c5.7-0.9,11.3-2.4,16.7-4.6c0.3-0.1,0.6-0.4,0.6-0.8V274c0-0.7,0-1.5-0.1-2.2l-10.8,5.1
	C672,276.9,680.2,320.9,665.6,353.8z"/>
<path class="st5" d="M690,312L673,278c-2-5.1,0.5-10.8,5.5-12.9l0,0c5.1-2,10.9,0.5,12.9,5.6l13.4,33.6c0.5,1.2,0.7,2.5,0.7,3.9
	l-1.8,55h-10.1L690,312z"/>
<path class="st13" d="M691.4,332.5c2,0.9,4.1,1.4,6.2,1.3c2.4,0,4.8-0.6,7-1.8l0.8-23.8c0-0.8-0.1-1.5-0.2-2.2
	c-0.1-0.5-0.3-0.9-0.5-1.4l-8.7-22l-4.6-11.6c-2.4-5-8.3-7.3-13.4-5.2c-1.3,0.5-2.5,1.3-3.5,2.3c-2.3,2.8-3,6.6-1.6,10l17.1,33.9
	L691.4,332.5z"/>
<path class="st9" d="M689.2,310.9l-17.2-34c-2.1-5.4,0.5-11.5,5.9-13.7l0,0c5.4-2.1,11.5,0.5,13.7,5.9l13,32.9
	c0.9,2.4,1.4,4.9,1.3,7.5v19c-2.4,1.7-5.4,2.7-8.4,2.7c-5,0-7.5-2.1-7.5-2.1L689.2,310.9z"/>
<path class="st5" d="M694.3,359.2c0.8-1,2.1-1.4,3.3-1.1c5.3,1.3,9.3,7.5,9.3,15.1c0,6.4-2.8,11.9-6.9,14.3
	c-1.5,0.8-3.3,0.2-4.1-1.2c-0.2-0.4-0.3-0.9-0.4-1.4l-0.1-14.5c0-1.1-0.9-2-2-2c-0.6,0-1.1,0.3-1.5,0.7l-0.3,0.4
	c-0.8,1-2.3,1.1-3.2,0.3c-0.2-0.1-0.3-0.3-0.4-0.5c-0.6-0.9-0.5-2,0.2-2.8L694.3,359.2z"/>
<rect x="650.4" y="241.3" class="st5" width="16.4" height="17.5"/>
<path class="st13" d="M650.4,251.6c1.1,0.3,2.3,0.4,3.4,0.4l0,0c5.3,0,10.2-2.8,12.9-7.4v-3.4h-16.3V251.6z"/>
<path class="st5" d="M655.3,206.3L655.3,206.3c-8.3,0-15.1,6.8-15.1,15.1v12.9c0,8.3,6.8,15.1,15.1,15.1l0,0
	c8.3,0,15.1-6.8,15.1-15.1v-12.9C670.3,213.1,663.6,206.3,655.3,206.3z"/>
<path class="st9" d="M642.7,202.6c0.1-0.3,0-0.7-0.3-0.8c-0.2-0.1-0.3-0.1-0.5,0c-2.4,1-4.1,3.1-4.8,5.5c-0.6,2.3-0.3,4.7,0.8,6.9
	c0.7,1.5,2.1,2.6,3.7,3c11.3,2.8,24-1.6,24-1.6c-1,9.4,3.3,15.3,3.3,15.3h3l2.9-2.1c0-5.4,5.7-16.8-3.9-16.8
	c-0.2-5.3-4.1-9.7-9.3-10.5c-1.3-0.3-6.1-1.5-11.6,2.9C645.4,208,641.1,205.6,642.7,202.6z"/>
<ellipse transform="matrix(0.3767 -0.9263 0.9263 0.3767 205.2333 764.7999)" class="st5" cx="670.9" cy="229.9" rx="5.9" ry="3.9"/>
<path class="st13" d="M649.4,225.9l1.4,9.3l-2.7,0.4c-0.9,0.1-1.6-0.6-1.7-1.4c0-0.3,0-0.5,0.1-0.7L649.4,225.9z"/>
<circle class="st9" cx="655.3" cy="227.8" r="1.4"/>
<circle class="st9" cx="644.2" cy="227.8" r="1.4"/>
<path class="st26" d="M657.5,223.6c-1.1-0.9-2.6-1.2-4-0.9"/>
<path class="st26" d="M641.4,223.9c1.1-0.9,2.6-1.2,4-0.9"/>
<path class="st27" d="M647.4,240.2c2.6,1.7,6.1,1,7.8-1.6"/>
<ellipse class="st4" cx="556.6" cy="534.3" rx="47.2" ry="21.2"/>
<path class="st24" d="M534.2,356.5l6-46.8c-0.1-5.3-4.4-9.6-9.7-9.5l0,0c-5.3,0.1-9.6,4.4-9.5,9.7l-1.7,53.7l10.5,34.6
	c0.1,0.7,0.8,1.1,1.4,0.9c0.1,0,0.1,0,0.2-0.1l7.1-2.8c0.5-0.2,0.8-0.7,0.8-1.2L534.2,356.5z"/>
<path class="st24" d="M530.8,300.9L530.8,300.9c3.7,0.2,7,2.3,8.7,5.6c0.4,1,0.6,2.1,0.6,3.2l-2.9,22.8c-2.8,1.1-5.9,1.6-8.9,1.5
	c-2.9,0-5.8-1-8.1-2.9l0.7-21.3c0-1.5,0.3-3,1-4.4C523.9,302.4,527.3,300.7,530.8,300.9z"/>
<path class="st8" d="M538.4,364.5l2.2-55.2c0.4-5.7-3.8-10.6-9.5-11l0,0c-1.6-0.1-3.2,0.1-4.6,0.7c-3.6,1.5-6.1,4.9-6.3,8.7
	l-2.1,50.9c-0.1,2.8,0.3,5.6,1.1,8.3l4.4,14L538.4,364.5z"/>
<path class="st8" d="M526,299.3c3.4-1.8,7.2-3,11.1-3.4l-3.1,4.8L526,299.3z"/>
<path class="st18" d="M535.7,517.9l14.7-5.3c2.1-0.7,4.3-0.5,6.2,0.7c1.1,0.7,2.2,1.4,2.9,1.9c1.5,1.1,1.1,3.5,1.1,3.5
	c0,1.1-0.7,2.1-1.8,2.5l-25.8,10.3c-1.5,0.6-3.2,0.3-4.5-0.7l-5.2-4.2c-1.1-0.8-1.4-2.4-0.5-3.5c0,0,0.1-0.1,0.1-0.1
	c0.7-0.9,1.1-2,1.1-3.1l0.4-7.6l11.6,1L535.7,517.9z"/>
<path class="st9" d="M523.5,526.5l5.2,4.2c1.3,1,3,1.2,4.5,0.7l25.8-10.3c0.6-0.2,1.1-0.7,1.5-1.2l0.1,1.9c0,1.1-0.7,2.1-1.8,2.5
	l-25.8,10.3c-1.5,0.6-3.2,0.3-4.5-0.7l-5.2-4.2c-1.1-0.8-1.3-2.4-0.5-3.5c0.1-0.1,0.1-0.2,0.2-0.3
	C523.1,526.1,523.3,526.3,523.5,526.5z"/>
<path class="st10" d="M551.3,518.8c0.4,0,0.8-0.4,0.8-0.8c0-0.1,0-0.2-0.1-0.3c-2.4-4.8-6.6-4.9-6.8-4.9l0,0c-0.4,0-0.8,0.4-0.7,0.9
	c0,0.4,0.3,0.7,0.7,0.7c0.1,0,3.4,0.1,5.3,4C550.7,518.6,551,518.8,551.3,518.8z"/>
<path class="st10" d="M547.3,520.2c0.4,0,0.8-0.4,0.8-0.8c0-0.1,0-0.2-0.1-0.3c-2.4-4.8-6.6-4.9-6.8-4.9l0,0c-0.4,0-0.8,0.4-0.7,0.9
	c0,0.4,0.3,0.7,0.7,0.7c0.1,0,3.4,0.1,5.3,4C546.7,520,547,520.1,547.3,520.2z"/>
<path class="st10" d="M543.2,521.6c0.4,0,0.8-0.4,0.8-0.8c0-0.1,0-0.2-0.1-0.3c-2.4-4.8-6.6-4.9-6.8-4.9c-0.4,0-0.8,0.4-0.8,0.8
	c0,0.4,0.4,0.8,0.8,0.8c0.1,0,3.4,0.1,5.3,4C542.6,521.4,542.9,521.6,543.2,521.6z"/>
<path class="st19" d="M524.8,385.3l-1.2,133.3c0,0,7.4,3.4,13.2-0.1l15-135l-15.7-5.5L524.8,385.3z"/>
<path class="st18" d="M568.9,533.9l14.9-4.9c2.1-0.7,4.4-0.4,6.2,0.8c1.1,0.7,2.2,1.5,2.8,2c1.5,1.2,1,3.5,1,3.5
	c0,1.1-0.8,2.1-1.8,2.5l-26,9.6c-1.5,0.5-3.2,0.3-4.4-0.8l-5-4.3c-1.1-0.9-1.3-2.4-0.4-3.5c0,0,0.1-0.1,0.1-0.1
	c0.7-0.9,1.2-2,1.2-3.1l0.6-7.6l11.5,1.3L568.9,533.9z"/>
<path class="st9" d="M556.4,542.2l5.1,4.3c1.2,1,2.9,1.3,4.4,0.8l26-9.6c0.6-0.2,1.1-0.6,1.5-1.2v1.9c0,1.1-0.8,2.1-1.8,2.5l-26,9.6
	c-1.5,0.5-3.2,0.3-4.4-0.8l-5.1-4.3c-1.1-0.9-1.3-2.4-0.4-3.5c0.1-0.1,0.1-0.2,0.2-0.3C556,541.8,556.2,542.1,556.4,542.2z"/>
<path class="st10" d="M584.3,535.3c0.4,0.1,0.8-0.3,0.9-0.7c0-0.1,0-0.3-0.1-0.4c-2.3-4.9-6.4-5.1-6.6-5.1c-0.4,0-0.8,0.3-0.8,0.8
	c0,0.4,0.3,0.8,0.8,0.8c0.2,0,3.4,0.2,5.2,4.2C583.8,535.1,584.1,535.2,584.3,535.3z"/>
<path class="st10" d="M580.3,536.5c0.4,0.1,0.8-0.3,0.9-0.7c0-0.1,0-0.3-0.1-0.4c-2.3-4.9-6.4-5.1-6.6-5.1c-0.4,0-0.8,0.3-0.8,0.8
	c0,0.4,0.3,0.8,0.8,0.8c0.2,0,3.4,0.2,5.2,4.2C579.8,536.3,580.1,536.5,580.3,536.5z"/>
<path class="st10" d="M576.2,537.9c0.4,0.1,0.8-0.3,0.9-0.7c0-0.1,0-0.3-0.1-0.4c-2.3-4.9-6.5-5.1-6.6-5.1c-0.4,0-0.8,0.4-0.7,0.9
	c0,0.4,0.3,0.7,0.7,0.7c0.2,0,3.4,0.2,5.2,4.2C575.6,537.7,575.9,537.9,576.2,537.9z"/>
<path class="st9" d="M571,385.5L570.6,534c0,0-8.5,4.3-15.8,0.6l-12.5-143.6l13.6-12.2L571,385.5z"/>
<path class="st9" d="M524.7,400.5l0.1-15.2l26.2,3.3l4.8,19.9C555.7,408.5,533.7,408.4,524.7,400.5z"/>
<path class="st17" d="M561.1,321.4l13.3-11.7c-9.7-7.3-20.9-12.1-32.9-14c0,0-10.6-1.3-15.8,8c-1.7,3-2.8,7.2-2.7,12.8L561.1,321.4z
	"/>
<path class="st28" d="M568.6,269.3c-1.1-0.9-2.6-1.2-4-1"/>
<path class="st6" d="M541.2,284.9l15.9-1l0.4,16.8c0,0-3.1,2.5-11-0.4c-5.1-1.9-5-4.5-5-4.5L541.2,284.9z"/>
<line class="st20" x1="555.7" y1="277.5" x2="561.2" y2="274.7"/>
<path class="st14" d="M557.3,293.7l-0.2-9.8l-15.9,1l0.3,10.9c0.1,1,0.6,1.9,1.4,2.5c1,0.2,1.9,0.3,2.9,0.3l0,0
	C550.1,298.6,554.3,296.8,557.3,293.7z"/>
<path class="st6" d="M551.7,249.5L551.7,249.5c-8.7-0.1-15.8,6.9-15.9,15.6l-0.2,13.4c-0.1,8.7,6.9,15.8,15.6,15.9l0,0
	c8.7,0.1,15.8-6.9,15.9-15.6l0.2-13.4C567.3,256.7,560.4,249.6,551.7,249.5z"/>
<path class="st9" d="M557.9,278c0,0,4.4,0.2,5-0.7c0.6-0.9,0.5-7.4,0.9-10.6l-4.5,1.1L557.9,278z"/>
<path class="st9" d="M544.2,251.3c-5.1,2.7-8.3,8-8.4,13.7l-0.2,13.4c0,4.6,2,9.1,5.5,12.1c3.4,3,8.6,2.7,11.6-0.8
	c0.2-0.2,0.4-0.5,0.6-0.8c1.8-2.6,2.8-5.6,2.8-8.8l0.2-13.4C556.4,259.4,551.3,253,544.2,251.3z"/>
<path class="st8" d="M566.6,257.5c0-1.8-6-14-19.3-12.4c-16.1,1.9-17.3,15.8-17.3,15.8c-1.5,7-0.1,16.8,6,23.1
	c3.9,4.1,15.4,1,19.8-6.6C563,264.5,566.6,263.3,566.6,257.5z"/>
<path class="st29" d="M544.4,279.3c-6.1-6.4-8-15.2-7.4-22.3c0.2-2.8,1.2-6.4,6.4-11.2c-12.7,3.6-13.6,15-13.6,15
	c-1.5,7-0.1,16.8,6,23.1c3.2,3.4,11.9,1.8,17.1-3.3C549.5,281.5,546.2,281.2,544.4,279.3z"/>
<path class="st29" d="M568.8,265.2c-0.4,2.3-4.3,2.9-9.6,10.5c0,0-12.6,18.8-22.5,12.2c-1.5-1-5.9-6.4-3.8-7.9c0,0,7,3.5,17.4-8.8
	c3.2-4,6.8-7.8,10.7-11.2c3.6-3,5.7-4.1,7.1-3.1c1.1,0.8-0.1,3.4,0.1,4.6C568.4,262.7,569.1,263.5,568.8,265.2z"/>
<path class="st30" d="M547.5,286c-1.5-1-5.5-5.8-4.6-7.9c-6.2,3.9-10,2-10,2c-2.1,1.5,2.3,6.8,3.8,7.9c3.9,2.6,8.2,1.3,11.9-1.3
	C548.2,286.4,547.8,286.2,547.5,286z"/>
<ellipse transform="matrix(0.9305 -0.3662 0.3662 0.9305 -62.8122 223.5382)" class="st6" cx="557.9" cy="277.3" rx="3.3" ry="5"/>
<path class="st17" d="M522.1,395.5c-0.4-5.5-0.4-11,0-16.5c0.7-7.2,2.5-23.2,2.6-27.4c0.1-5.3-2-24.1-1.9-26.9c0.2-12.5,0.3-8,0.3-8
	l17.8-13.6l30.1,7.5l0.8,92C571.8,402.6,543.4,410,522.1,395.5z"/>
<path class="st4" d="M559.3,376l4.5,27.9c2.7-0.3,5.4-0.7,8.1-1.4l0,0l-0.7-85.9l0-5.9c-0.7-0.2-1.5-0.3-2.2-0.3
	c-5.7-0.1-10.3,4.5-10.4,10.2L559.3,376z"/>
<path class="st6" d="M578.8,365.2l-0.3-47.2c-0.8-5.3-5.6-8.9-10.9-8.2l0,0c-5.3,0.8-8.9,5.6-8.2,10.9l5.5,53.5l11,41.1
	c0.2,0.6,0.9,1,1.6,0.7c0.1,0,0.1-0.1,0.2-0.1l6.7-3.8c0.5-0.3,0.7-0.8,0.6-1.3L578.8,365.2z"/>
<path class="st14" d="M582,389.2l-3.2-24l-0.3-47.2c-0.1-0.7-0.3-1.4-0.5-2.1c-2-3.4-5.8-5.3-9.7-4.9l0,0c-4.1,0.4-7.5,3.2-8.8,7.1
	c-0.1,0.9-0.1,1.8,0,2.7l5.5,53.5l4.9,18.2c2.2,0.8,4.6,0.9,6.9,0.1C579.7,391.7,581.3,390.4,582,389.2z"/>
<path class="st8" d="M563.5,373.3l-5-54.1c-0.5-5.6,3.6-10.6,9.2-11.2l0,0c5.6-0.5,10.6,3.6,11.2,9.2l0.6,47l2.8,19.8
	c0,0,0,3.6-6.1,5.4c-5.8,1.7-8.9-1.3-8.9-1.3L563.5,373.3z"/>
<path class="st6" d="M576,407.5c0.1-1.6,1.4-2.8,3-2.7c0.5,0,1,0.2,1.5,0.5c4.5,3.1,7.8,9.4,8,16.7c0.3,8-3.1,15-8.1,18.2
	c-1.8,1.1-4,0.5-5.1-1.3c-0.3-0.6-0.5-1.2-0.5-1.9C574.7,429.6,576,407.5,576,407.5z"/>
<rect x="573.4" y="408.4" transform="matrix(0.9621 -0.2726 0.2726 0.9621 -89.9754 173.8129)" class="st19" width="14.2" height="4.6"/>
<path class="st19" d="M588.9,405.1l1.6,5.8c0.3,1-0.3,2-1.3,2.3l0,0c-1,0.3-2-0.3-2.3-1.3l-1.6-5.8c-0.3-1,0.3-2,1.3-2.3l0,0
	C587.6,403.5,588.6,404.1,588.9,405.1z"/>
<ellipse transform="matrix(1.832498e-02 -0.9998 0.9998 1.832498e-02 -415.3558 683.5575)" class="st0" cx="140.4" cy="553.3" rx="69.9" ry="140.4"/>
<linearGradient id="SVGID_5_" gradientUnits="userSpaceOnUse" x1="323.0918" y1="-446.6193" x2="49.7419" y2="-446.6193" gradientTransform="matrix(1 0 0 -0.79 2.65 213.0199)">
	<stop  offset="1.000000e-02" style="stop-color:#3B8A9D"/>
	<stop  offset="1" style="stop-color:#15383F"/>
</linearGradient>
<path class="st31" d="M335.6,549.6c-0.7,38.6-64.1,68.8-141.7,67.4S54,583.1,54.7,544.5L54,514.7l280.8,1.1L335.6,549.6z"/>
<linearGradient id="SVGID_6_" gradientUnits="userSpaceOnUse" x1="53.9671" y1="107.9641" x2="334.8119" y2="107.9641" gradientTransform="matrix(1 0 0 -1 2.853380e-02 625.2514)">
	<stop  offset="0" style="stop-color:#59B0BF"/>
	<stop  offset="0.5" style="stop-color:#A6DCE7"/>
	<stop  offset="1" style="stop-color:#DCF2F4"/>
</linearGradient>
<path class="st32" d="M54,514.7c0.7-38.6,64.1-68.8,141.7-67.4c77.5,1.4,139.8,33.9,139.1,72.5s-64.1,68.8-141.7,67.4
	S53.3,553.3,54,514.7z"/>
<ellipse transform="matrix(3.123633e-02 -0.9995 0.9995 3.123633e-02 -340.0712 623.0466)" class="st4" cx="151.4" cy="487" rx="21.7" ry="48.5"/>
<path class="st33" d="M154.9,464.6l-1.2,3.9c-0.1,1,0.5,1.9,1.4,2.3L177,481c1.3,0.6,2.8,0.5,3.9-0.3l4.7-3.4c1-0.7,1.3-2.1,0.6-3.1
	c-0.2-0.3-0.5-0.6-0.9-0.8L166.4,463l-0.8-10.2l-10.2-0.4L154.9,464.6z"/>
<path class="st9" d="M185.6,477.3l-4.7,3.4c-1.1,0.8-2.6,0.9-3.9,0.3l-21.8-10.2c-0.5-0.2-0.9-0.6-1.2-1.2l-0.1,1.7
	c-0.1,1,0.5,1.9,1.4,2.3l21.9,10.2c1.3,0.6,2.8,0.5,3.9-0.3l4.7-3.4c1-0.7,1.3-2,0.6-3c-0.1-0.1-0.1-0.2-0.2-0.2
	C185.9,477,185.7,477.2,185.6,477.3z"/>
<path class="st10" d="M166.6,469.9c-0.4,0-0.8-0.4-0.8-0.8c0-0.1,0-0.3,0.1-0.4c1.2-2.4,3.5-3.9,6.2-4c0.4,0.1,0.7,0.5,0.7,0.9
	c-0.1,0.4-0.4,0.7-0.7,0.7c-0.1,0-2.9-0.1-4.8,3.2C167.2,469.7,166.9,469.9,166.6,469.9z"/>
<path class="st10" d="M169.9,471.6c-0.4,0-0.8-0.4-0.8-0.8c0-0.1,0-0.3,0.1-0.4c1.2-2.4,3.5-3.9,6.2-4c0.4,0,0.8,0.4,0.8,0.8
	c0,0,0,0,0,0c0,0.4-0.4,0.8-0.8,0.8c-0.1,0-2.9-0.1-4.8,3.2C170.5,471.4,170.2,471.6,169.9,471.6z"/>
<path class="st10" d="M173.4,473.7c-0.4,0-0.8-0.4-0.8-0.8c0-0.1,0-0.3,0.1-0.4c1.2-2.4,3.5-3.9,6.2-4c0.4,0,0.8,0.4,0.8,0.8
	c0,0,0,0,0,0c0,0.4-0.4,0.8-0.8,0.8c-0.1,0-2.9-0.1-4.8,3.2C173.9,473.5,173.7,473.7,173.4,473.7z"/>
<path class="st9" d="M168.1,461.6c0,0-7.2,3.8-14.4,0.8l-13.3-111.2l16.4-19.8l10,4.3L168.1,461.6z"/>
<path class="st33" d="M120.2,482.4l-1.5,4.1c-0.1,1,0.4,2.1,1.4,2.5l23,12.1c1.3,0.7,2.9,0.6,4.2-0.2l5.2-3.4
	c1.1-0.7,1.5-2.1,0.8-3.3c-0.2-0.4-0.5-0.7-0.9-0.9l-19.7-12.1l-0.3-11l-11-0.9L120.2,482.4z"/>
<path class="st9" d="M152.5,497.6l-5.2,3.4c-1.3,0.8-2.9,0.9-4.2,0.2l-23-12.1c-0.5-0.3-1-0.7-1.2-1.3l-0.2,1.8
	c-0.1,1,0.4,2.1,1.4,2.5l23,12.1c1.3,0.7,2.9,0.6,4.2-0.2l5.2-3.4c1.1-0.7,1.5-2.1,0.8-3.2c-0.1-0.1-0.1-0.2-0.2-0.3
	C152.9,497.2,152.7,497.4,152.5,497.6z"/>
<path class="st10" d="M132.5,488.5c-0.4,0-0.7-0.3-0.7-0.8c0-0.1,0-0.3,0.1-0.4c2.7-4.2,6.6-3.9,6.8-3.9c0.4,0,0.7,0.4,0.7,0.8
	c0,0.4-0.4,0.7-0.8,0.7c-0.1,0-3.2-0.2-5.4,3.2C133,488.4,132.8,488.5,132.5,488.5z"/>
<path class="st10" d="M136,490.6c-0.4,0-0.7-0.3-0.7-0.8c0-0.1,0-0.3,0.1-0.4c2.7-4.2,6.6-3.9,6.8-3.9c0.4,0,0.7,0.4,0.7,0.8
	c0,0.4-0.4,0.7-0.8,0.7c-0.1,0-3.2-0.2-5.4,3.2C136.5,490.5,136.2,490.6,136,490.6z"/>
<path class="st10" d="M139.6,493c-0.4,0-0.7-0.3-0.7-0.8c0-0.1,0-0.3,0.1-0.4c2.7-4.2,6.6-3.9,6.8-3.9c0.4,0,0.7,0.4,0.7,0.8
	c0,0.4-0.4,0.7-0.8,0.7c-0.1,0-3.2-0.2-5.4,3.2C140.1,492.9,139.9,493,139.6,493z"/>
<path class="st19" d="M116.3,340.2l0.1,7c0,3.8,0.5,7.6,1.4,11.3l0.9,3.7c0.6,2.5,0.9,5.1,0.9,7.7l-1,108.7c0,0,7.7,4.6,15.5,0.8
	l13.8-134.7l-12-12.3L116.3,340.2z"/>
<polygon class="st19" points="140.9,342.6 138.1,359.8 144.7,365.6 163.5,349 "/>
<path class="st24" d="M178.7,311.6l-8.4-38.7c-1-3.2-4.7-4.9-8.3-3.9l0,0c-3.6,1.1-5.8,4.5-4.8,7.7l11.9,39.4l18.9,41.5l4.3-6.4
	L178.7,311.6z"/>
<path class="st18" d="M179.1,311.7l-8.7-39.2c-1-3.4-5-5.3-8.9-4.1l0,0c-3.9,1.1-6.2,4.8-5.1,8.2l11.9,39.8l16.3,35.4
	c2.8,0.1,5.6-1.2,7.4-3.4L179.1,311.7z"/>
<path class="st24" d="M194.6,351.3c-1-0.7-2.4-0.8-3.4-0.1c-4.7,2.7-6.7,9.8-4.7,17c1.8,6.1,6,10.6,10.6,11.7
	c1.6,0.3,3.2-0.7,3.5-2.4c0.1-0.5,0.1-0.9-0.1-1.4l-4-13.8c-0.3-1.1,0.3-2.2,1.4-2.5c0.5-0.1,1.1-0.1,1.6,0.2l0.4,0.3
	c1.1,0.7,2.5,0.4,3.2-0.6c0.1-0.2,0.2-0.4,0.3-0.6c0.3-1-0.1-2.1-1-2.7L194.6,351.3z"/>
<polygon class="st18" points="128.3,282.5 114.5,269.6 134.8,260.3 151.3,260 166.5,268.5 163.7,270.1 "/>
<path class="st18" d="M151.3,260l-6.8-1.3l0,0c-9.8,0.5-20.4,7.9-26.9,21l-1.5,7.8c0,0,8.1,13.5,4.3,27.5
	c-2.2,8.2-6.2,20.4-6.2,29.6v3.7c0,0,36.9,12.8,53.6-2.8c-0.4-7-1.2-13.9-2.4-20.8c-2.2-12.1-4.4-17-2.5-22.5c1-3,2.6-2.1,4.4-6.4
	c2.5-6.2-0.4-13.1-3.9-17.7c-2.6-3.3-2.2-12.7-2.2-12.7L151.3,260z"/>
<path class="st11" d="M121.3,277.3l-3.8,2.5l-1.5,7.7c0,0,8.1,13.5,4.3,27.5c-2.2,8.2-6.2,20.4-6.2,29.6v3.7
	c6,1.9,12.1,3.3,18.3,4.2c-10-31.7,10.6-44.4-1.4-50.1C119.5,296.8,121.3,277.3,121.3,277.3z"/>
<path class="st24" d="M149.1,277.9c-5.4,0.9-14-5.2-15.7-12c-1-3.8,3-7.6,8.3-8.5s11.2,2.2,12.5,7.3
	C155.1,268.5,154.4,277,149.1,277.9z"/>
<path class="st24" d="M114.3,320.3l10.2-42.7c0.6-3.6-2.2-7-6.2-7.6l0,0c-4-0.5-7.8,2-8.3,5.7l-7.2,44.8l-0.4,50.5l7.3-4.6
	L114.3,320.3z"/>
<path class="st18" d="M114.7,320.6l10.2-43.2c0.6-3.9-2.4-7.5-6.6-8.1l0,0c-4.3-0.6-8.3,2.2-8.9,6l-7.4,45.2v42.9
	c0,0,3.1,2.2,8.7,0.4L114.7,320.6z"/>
<path class="st24" d="M111.4,367.1c-0.5-1.1-1.7-1.8-2.9-1.8c-5.4,0.1-10.7,5.3-12.4,12.6c-1.5,6.2,0.1,12.2,3.5,15.4
	c1.3,1.1,3.2,0.9,4.2-0.3c0.3-0.4,0.5-0.8,0.6-1.2l3.3-14c0.3-1.1,1.4-1.7,2.4-1.5c0.6,0.1,1,0.5,1.3,1l0.2,0.5c0.6,1.1,2,1.6,3.1,1
	c0.2-0.1,0.4-0.2,0.5-0.4c0.8-0.7,0.9-1.9,0.4-2.8L111.4,367.1z"/>
<rect x="134.8" y="247.5" class="st13" width="16.5" height="18.2"/>
<path class="st24" d="M151.3,257.6c-1.3,0.4-2.6,0.6-3.9,0.6l0,0c-5.9,0-11.2-3.9-13-9.5v-1.2h16.9L151.3,257.6z"/>
<path class="st33" d="M129.8,255.8c0,0-3.3,1.6-3.3,8.3c0,0,3-0.7,3.8,1.7c2.3,7,3.4,11,7.8,11.2c4.2,0.2,8.1-5.7,12.2-7.7
	c2.8-1.4,8.6,0,9.5-1.8c1.6-3.2-2.1-7.1-2.1-7.1L129.8,255.8z"/>
<path class="st5" d="M156.7,260.2l-26.9-4.4c0,0-2.2,0.7-3,4.9c0.2,0.9,3.8-0.4,5.4,1.8c1.9,2.6,3.3,5.4,4.5,5.9
	c2.4,1,5.6-2.5,9.9-3.5C149.5,264.2,154.8,265.8,156.7,260.2z"/>
<path class="st33" d="M132.8,245.5c-3,2.5-4.2,6.6-3,10.3c2,6.4,11.3,7.2,15.6,7.4c3.3,0.2,10.3,0.3,12.8-3.6c2.9-4.3-1-9.6-1-9.6
	L132.8,245.5z"/>
<path class="st5" d="M155.7,251.5c0.2-0.6,0.3-1.1,0.4-1.7l-23.3-4.3c-1,0.9-1.9,2-2.5,3.2c0.2,1.1,0.5,2.3,1,3.3
	c2.8,6,10.7,5.4,14.3,4.9C148.4,256.6,154.3,255.7,155.7,251.5z"/>
<path class="st13" d="M144.4,211.3c-7,1-12.1,7-12.1,14v16.8c0,7.5,6,13.6,13.5,13.7h0.2c7.5,0,13.7-6.1,13.7-13.7v-17.2
	c0-7.6-6.2-13.7-13.7-13.7C145.4,211.2,144.9,211.3,144.4,211.3z"/>
<path class="st33" d="M146.1,210.2c-13.6,0-15.1,11-14.9,18.5c0.1,4.3,0.5,10.5,0.7,14.3c0.4,7.5,6.6,12.8,14.1,12.9
	c-3.8-1.5-6.2-5.2-6.2-9.3v-17.2c0-5.5,4.5-10,10-10s10,4.5,10,10v-4.4C159.7,217.4,155.4,210.2,146.1,210.2z"/>
<path class="st29" d="M132.5,243.6c0,0.1,0,0.1,0,0.2S132.5,243.6,132.5,243.6z"/>
<path class="st29" d="M149.7,219.3c-5,0-9.2,3.7-9.9,8.6c2.9-3,6.9-4.8,11.1-4.8c2.9,0,5.7,0.9,8.1,2.5
	C157.5,221.7,153.8,219.3,149.7,219.3z"/>
<ellipse class="st9" cx="146.1" cy="233.5" rx="1.3" ry="1.5"/>
<ellipse class="st9" cx="156.1" cy="233.5" rx="1.3" ry="1.5"/>
<path class="st26" d="M143.5,229.2c0.4-0.4,1-0.7,1.5-0.9c0.8-0.3,1.6-0.3,2.4-0.1"/>
<path class="st26" d="M159.2,229.5c-0.4-0.4-1-0.7-1.5-0.9c-0.8-0.3-1.6-0.3-2.4-0.1"/>
<path class="st24" d="M149.1,239c0,0.8,1.2,0.9,1.7,1.4s0.5,1.1,1.2,1.1s0.8-0.7,1.3-1.2s1.2-0.4,1.2-1.2c-0.8,0.3-1.6,0.5-2.5,0.5
	C150.9,239.3,150,239.2,149.1,239z"/>
<path class="st9" d="M153.9,245c-0.2,2.2-2.2,3.8-4.4,3.6c-2.2-0.2-3.8-2.2-3.6-4.4L153.9,245z"/>
<path class="st29" d="M147.8,246c-0.5,0-1,0.1-1.5,0.4c0.8,1.7,2.7,2.5,4.6,2.1C150.6,247.1,149.3,246,147.8,246z"/>
<path class="st33" d="M266,415.5l1.3-53.7l-5.6-41.7c0,0-1.6-11.7,7.5-12.8s9.4,11.7,9.4,11.7l1,44.1c0,1.9-0.1,3.7-0.3,5.6
	l-6.4,48.6L266,415.5z"/>
<ellipse class="st4" cx="241.2" cy="537.6" rx="53.5" ry="24"/>
<path class="st19" d="M278.6,524.6c1.1,0.8,2,3.8,0.8,4.8l-5.3,4.1c-1.3,1-3,1.2-4.5,0.5l-25.6-10.9c-1.1-0.4-1.7-1.4-1.7-2.6
	c0,0,0.1-2.7,1.6-3.8c0.6-0.5,1.4-0.9,2.5-1.5c1.9-1.1,4.2-1.3,6.2-0.5C252.6,514.8,272.7,520.3,278.6,524.6z"/>
<path class="st9" d="M279.3,529.4l-5.3,4.1c-1.3,1-3,1.2-4.5,0.5l-25.6-10.9c-0.6-0.3-1.1-0.7-1.4-1.3l-0.1,1.9
	c0,1.1,0.7,2.2,1.7,2.6l25.6,10.9c1.5,0.6,3.2,0.4,4.5-0.5l5.3-4.1c1.1-0.8,1.4-2.4,0.6-3.5c-0.1-0.1-0.1-0.2-0.2-0.3
	C279.7,529,279.5,529.2,279.3,529.4z"/>
<path class="st10" d="M251.7,521c-0.4,0-0.8-0.3-0.8-0.7c0-0.1,0-0.3,0.1-0.4c2.5-4.8,6.7-4.8,6.9-4.8c0.4,0,0.8,0.4,0.8,0.8
	c0,0.4-0.4,0.8-0.8,0.8c-0.1,0-3.4,0-5.4,3.9C252.2,520.9,252,521,251.7,521z"/>
<path class="st10" d="M255.7,522.5c-0.4,0-0.8-0.3-0.8-0.7c0-0.1,0-0.3,0.1-0.4c2.5-4.8,6.7-4.8,6.9-4.8c0.4,0,0.8,0.4,0.8,0.8
	c0,0.4-0.4,0.8-0.8,0.8c-0.1,0-3.4,0-5.5,3.9C256.2,522.3,255.9,522.5,255.7,522.5z"/>
<path class="st10" d="M259.8,524.1c-0.4,0-0.8-0.3-0.8-0.7c0-0.1,0-0.3,0.1-0.4c2.5-4.8,6.7-4.8,6.9-4.8c0.4,0,0.8,0.4,0.7,0.9
	c0,0.4-0.3,0.7-0.7,0.7c-0.2,0-3.4,0-5.5,3.9C260.3,523.9,260,524.1,259.8,524.1z"/>
<path class="st33" d="M250.6,383.5l14,139.6c0.1,0.9,0.7,1.8,1.5,2.2c2.4,1.2,5.2,1.1,7.6-0.1c0.9-0.5,1.5-1.4,1.5-2.4l-1.3-142.7
	l-9.8-11.4L250.6,383.5z"/>
<path class="st19" d="M247.1,544.9c1,0.9,1.7,3.9,0.4,4.8l-5.6,3.7c-1.4,0.9-3.1,0.9-4.5,0.2l-24.8-12.7c-1-0.5-1.6-1.5-1.5-2.7
	c0,0,0.3-2.6,1.9-3.6c0.7-0.4,1.4-0.8,2.6-1.3c2-1,4.3-1,6.2-0.1C221.9,533.2,241.5,540.1,247.1,544.9z"/>
<path class="st9" d="M247.5,549.7l-5.6,3.7c-1.4,0.9-3.1,0.9-4.5,0.2l-24.8-12.7c-0.6-0.3-1.1-0.8-1.3-1.4l-0.2,1.9
	c-0.1,1.1,0.5,2.2,1.5,2.7l24.8,12.7c1.4,0.7,3.2,0.6,4.5-0.2l5.6-3.7c1.2-0.7,1.6-2.3,0.9-3.5c-0.1-0.1-0.1-0.2-0.2-0.3
	C248,549.4,247.7,549.6,247.5,549.7z"/>
<path class="st10" d="M220.6,539.4c-0.4,0-0.8-0.4-0.8-0.8c0-0.1,0-0.3,0.1-0.4c2.9-4.6,7-4.3,7.2-4.2c0.4,0,0.8,0.4,0.7,0.9
	c0,0.4-0.4,0.8-0.9,0.7c-0.1,0-3.4-0.2-5.7,3.5C221.1,539.3,220.8,539.4,220.6,539.4z"/>
<path class="st10" d="M224.4,541.2c-0.4,0-0.8-0.4-0.8-0.8c0-0.1,0-0.3,0.1-0.4c2.9-4.6,7-4.3,7.2-4.2c0.4,0,0.8,0.4,0.7,0.9
	c0,0.4-0.4,0.8-0.9,0.7c-0.1,0-3.4-0.2-5.7,3.5C224.9,541,224.7,541.1,224.4,541.2z"/>
<path class="st10" d="M228.4,543c-0.4,0-0.8-0.4-0.8-0.8c0-0.1,0-0.3,0.1-0.4c2.9-4.6,7-4.3,7.2-4.2c0.4,0.1,0.7,0.5,0.7,0.9
	c-0.1,0.4-0.4,0.7-0.8,0.7c-0.2,0-3.4-0.2-5.7,3.5C228.9,542.9,228.7,543,228.4,543z"/>
<path class="st33" d="M229.3,402.1l4,140.3c0,0.9,0.6,1.8,1.4,2.3c2.3,1.3,5.1,1.5,7.6,0.4c0.9-0.4,1.6-1.3,1.6-2.3l8.9-142.4
	l-9-12.1L229.3,402.1z"/>
<path class="st5" d="M259.7,474.3c1.6,0.9,3.1,2.2,5.8,2.8c1.2,0.3,6.1,0.7,9.3-1l-0.7-72.1l-21.4,1.3L259.7,474.3z"/>
<path class="st5" d="M248.2,474.3l4.3-69l-23.1,1.4l1.8,63c7.4,1.5,2.5,4.4,4.3,5.6C238.7,477.3,243.4,475.6,248.2,474.3z"/>
<path class="st13" d="M275.3,409.8l-0.1-15.2L249,398l-5.8,18.2C243.2,416.1,266.3,417.8,275.3,409.8z"/>
<path class="st11" d="M238.9,330.6l-13.4-11.7c9.7-7.3,21-12.1,32.9-14c0,0,10.6-1.3,15.8,8c2.7,4.8,3.2,10.9,3.2,17.7L238.9,330.6z
	"/>
<path class="st8" d="M227.1,398.7l51.1-3.1c0,0,5.6,50.3,5.6,64.2c0,3.2-4.1-1-6.6,1c-1.1,0.8,1,3.1-0.2,5.1c-2.4,4-10,3.4-11.5,3.1
	c-3.8-0.8-5.2-3-7.8-3.7c-7.2-1.9-16.8,5.3-22.2,1.8c-1.9-1.2,3.6-4.4-5.5-5.8c-8.5-1.3-8.6-2.2-8.5-3.8
	C222.8,442,222.8,418,227.1,398.7z"/>
<path class="st29" d="M227.1,398.7c-4.4,19.3-4.3,43.3-5.6,58.8c-0.1,1.5,0,2.3,6.8,3.5c0,0,8-28.1,9.2-37.7
	c0.3-2.9,1.6-16,5.3-21.4l-4.5-5.7L227.1,398.7"/>
<path class="st11" d="M274.6,403.8c5-2.4,7.6,0.6,5.3-8.2c-1.6-6.1-6.5-21.5-6.9-24.8c-1.5-12.4,3.2-20.3,4.3-32
	c0.8-9.1-0.2-13-0.2-13l-17.9-13.6l-30.2,7.6l-2.7,68.5l-2,12c4.2-1.9,8.9-2.1,13.2-0.6c5.5,2,9.9,11.2,26.6,8.8
	C269.8,407.6,273.3,404.4,274.6,403.8z"/>
<path class="st12" d="M237.8,329.2l-9.2-3.8l-2.5,62.9l-2,12c4.2-1.9,8.9-2.1,13.2-0.6c3,1.1,5.6,4.3,10.1,6.6
	c1.5-9.9,3.3-14.8-4.5-29.4C236.2,363.9,237.8,329.2,237.8,329.2z"/>
<path class="st34" d="M232.2,279.8l-2.5,1.4c-0.4,0.2-0.8,0.1-1-0.3c-0.1-0.1-0.1-0.2-0.1-0.3v-3.9c0-0.3,0.1-0.5,0.4-0.6l2.5-1.4
	c0.4-0.2,0.8-0.1,1,0.3c0.1,0.1,0.1,0.2,0.1,0.3v3.8C232.6,279.4,232.5,279.6,232.2,279.8z"/>
<path class="st33" d="M257.3,294.2l-15.9-1l-0.4,16.8c0,0,3.1,2.5,11-0.4c5.1-1.9,5-4.5,5-4.5L257.3,294.2z"/>
<path class="st5" d="M241.4,293.2l-0.3,13.4c1.1,0.3,2.3,0.5,3.5,0.6l0,0c4.7,0.3,9.3-1.5,12.5-5l0.2-8L241.4,293.2z"/>
<path class="st5" d="M262.7,274.3c-0.1-8.7-7.2-15.7-15.9-15.6l0,0c-8.7,0.1-15.6,7.2-15.6,15.9l0.2,13.5
	c0.3,8.7,7.6,15.5,16.3,15.2c8.4-0.3,15.1-7.1,15.2-15.6L262.7,274.3z"/>
<line class="st20" x1="246.8" y1="258.7" x2="246.8" y2="258.7"/>
<path class="st9" d="M237.3,284c-2.2,6-7.3,8.3-7.6,10.3c-0.8,5.1,2.9,4.7-0.6,10.5c-2.1,3.4-1.6,7.9,1.4,10.6
	c7.2-1.6,10.5,2.1,13.1,4.5s4.9,2.9,6.1,5.7c1.2,2.8,0.1,4.9-0.1,9.2c-0.4,7.9,8.7,10.3,13.5,9.1c12.3-3,11.9-8.8,11-12.7
	s-2.9-1.2-0.8-10.7c2.2-9.5-5.5-8.2-4.8-18.8c0.4-6.1-4.5-4.4-2.6-13.8c0.8-3.6-2.4-7-2.3-13.5c0.2-13.9-11.4-15.5-13.6-15.9
	c-14.4-2.3-20.9,2.4-21.2,6.7c-0.2,2.3,0.6,2.8,5,5.6c1.8,1.2-0.3,7,0.3,9.7C234.6,283.3,237.8,282.7,237.3,284z"/>
<path class="st35" d="M228.6,277.9l11.1,5.3c1.1,0.5,1.9,1.6,2.1,2.8l0.2,0.9"/>
<ellipse transform="matrix(0.582 -0.8132 0.8132 0.582 -131.8219 311.1841)" class="st5" cx="236.8" cy="283.8" rx="4.6" ry="3.1"/>
<path class="st5" d="M215.2,413.4l5.6-43.5l0.4-41.1c0,0,0.1-11.5,9-11.3c8.9,0.2,7.5,12.6,7.5,12.6l-5.1,42.8
	c-0.2,1.8-0.6,3.6-1.1,5.4l-9.9,37.9L215.2,413.4z"/>
<path class="st5" d="M223.8,407.9c0.3-1.4-0.5-2.8-1.9-3.1c-0.5-0.1-1-0.1-1.5,0.1c-4.7,1.7-9,6.5-10.9,12.8
	c-2.1,7-0.8,13.9,2.9,17.8c1.3,1.3,3.5,1.3,4.8,0c0.4-0.4,0.7-0.9,0.9-1.5C219.9,427.6,223.8,407.9,223.8,407.9z"/>
<g>
	<defs>
		<path id="SVGID_7_" d="M227.1,398.7l51.1-3.1c0,0,5.6,50.3,5.6,64.2c0,3.2-4.1-1-6.6,1c-1.1,0.8,1,3.1-0.2,5.1
			c-2.4,4-10,3.4-11.5,3.1c-3.8-0.8-5.2-3-7.8-3.7c-7.2-1.9-16.8,5.3-22.2,1.8c-1.9-1.2,3.6-4.4-5.5-5.8c-8.5-1.3-8.6-2.2-8.5-3.8
			C222.8,442,222.8,418,227.1,398.7z"/>
	</defs>
	<clipPath id="SVGID_8_">
		<use xlink:href="#SVGID_7_"  style="overflow:visible;"/>
	</clipPath>
	<g class="st36">
		<path class="st29" d="M235.5,463.6l2.1-40.2c0.1-0.6-0.3-1.1-0.9-1.1c-0.6-0.1-1.1,0.3-1.1,0.9l0,0l-8.2,41.5L235.5,463.6z"/>
		<path class="st29" d="M253.3,465.9l1.3-49c0-0.4,0.4-0.8,0.8-0.7c0.3,0,0.6,0.3,0.7,0.6l11.3,57.2l-11.2-7.9L253.3,465.9z"/>
		<path class="st29" d="M277.3,460.8c0.1-0.6-1.5-19.3-2.6-32.9c0-0.4,0.3-0.7,0.7-0.7c0.3,0,0.6,0.2,0.7,0.5l6.4,35.2L277.3,460.8z
			"/>
	</g>
</g>
</svg>
