<?xml version="1.0" encoding="utf-8"?>
<!-- Generator: Adobe Illustrator 22.0.1, SVG Export Plug-In . SVG Version: 6.00 Build 0)  -->
<svg version="1.1" id="Layer_2_1_" xmlns="http://www.w3.org/2000/svg" xmlns:xlink="http://www.w3.org/1999/xlink" x="0px" y="0px"
	 viewBox="0 0 559.8 570.1" style="enable-background:new 0 0 559.8 570.1;" xml:space="preserve">
<style type="text/css">
	.st0{fill:#DDE8E8;}
	.st1{fill:#ABB2B2;}
	.st2{fill:#8B8E8E;}
	.st3{fill:#FFDF8F;}
	.st4{fill:#F7C745;}
	.st5{fill:#EDAB26;}
	.st6{clip-path:url(#SVGID_2_);}
	.st7{fill:#59B0BF;}
	.st8{fill:#58AFBE;}
	.st9{fill:#57AEBD;}
	.st10{fill:#57ADBC;}
	.st11{fill:#56ACBB;}
	.st12{fill:#55ABBA;}
	.st13{fill:#54AAB9;}
	.st14{fill:#53A9B9;}
	.st15{fill:#53A8B8;}
	.st16{fill:#52A7B7;}
	.st17{fill:#51A6B6;}
	.st18{fill:#50A5B5;}
	.st19{fill:#4FA4B4;}
	.st20{fill:#4EA3B3;}
	.st21{fill:#4EA2B2;}
	.st22{fill:#4DA1B1;}
	.st23{fill:#4CA0B0;}
	.st24{fill:#4B9FAF;}
	.st25{fill:#4A9EAE;}
	.st26{fill:#4A9CAE;}
	.st27{fill:#499BAD;}
	.st28{fill:#489AAC;}
	.st29{fill:#4799AB;}
	.st30{fill:#4698AA;}
	.st31{fill:#4697A9;}
	.st32{fill:#4596A8;}
	.st33{fill:#4495A7;}
	.st34{fill:#4394A6;}
	.st35{fill:#4293A5;}
	.st36{fill:#4192A4;}
	.st37{fill:#4191A3;}
	.st38{fill:#4090A3;}
	.st39{fill:#3F8FA2;}
	.st40{fill:#3E8EA1;}
	.st41{fill:#3D8DA0;}
	.st42{fill:#3D8C9F;}
	.st43{fill:#3C8B9E;}
	.st44{fill:#3B8A9D;}
	.st45{fill:#A6DCE7;}
	.st46{fill:#FFFFFF;}
	.st47{fill:#DCF2F4;}
	.st48{fill:#15383F;}
	.st49{fill:#EA831C;}
	.st50{fill:#EF514D;}
	.st51{fill:#FF9797;}
	.st52{fill:#184B54;}
	.st53{fill:#874514;}
	.st54{fill:#A1581B;}
	.st55{fill:none;}
	.st56{fill:#4C2911;}
	.st57{fill:#345B3B;}
	.st58{fill:#C63838;}
</style>
<title>57_Person_At_Desk</title>
<polygon class="st0" points="0,411.4 110.6,475.3 442.7,284.5 332.3,219.6 "/>
<polygon class="st0" points="360.2,557.9 531.3,458.9 400.6,383.5 232.4,484 "/>
<path class="st0" d="M399.9,570.1c-0.4,0-0.7-0.1-1-0.3l-36.2-20.5c-1-0.6-1.3-1.8-0.7-2.7s1.8-1.3,2.7-0.7l36.2,20.5
	c1,0.5,1.3,1.8,0.8,2.7C401.3,569.8,400.6,570.1,399.9,570.1z"/>
<path class="st0" d="M553.4,482.2c-0.3,0-0.6-0.1-0.9-0.2l-45.8-23.8c-1-0.5-1.4-1.7-0.9-2.7s1.7-1.4,2.7-0.9c0,0,0.1,0,0.1,0.1
	l45.9,23.8c1,0.5,1.4,1.7,0.9,2.7C554.9,481.8,554.2,482.3,553.4,482.2L553.4,482.2z"/>
<path class="st0" d="M185.6,496.7c-0.5,0-1.1-0.1-1.5-0.4L111.7,454c-1.5-0.7-2.1-2.5-1.4-4c0.7-1.5,2.5-2.1,4-1.4
	c0.1,0.1,0.2,0.1,0.4,0.2l72.4,42.3c1.4,0.8,1.9,2.7,1.1,4.1C187.6,496.1,186.6,496.7,185.6,496.7L185.6,496.7z"/>
<path class="st1" d="M185.6,496.7h-0.4c-1.6-0.2-2.8-1.7-2.6-3.4l24.8-190.2c0.2-1.7,1.7-2.8,3.4-2.6c1.7,0.2,2.8,1.7,2.6,3.4
	l-24.8,190.2C188.4,495.6,187.1,496.7,185.6,496.7z"/>
<path class="st1" d="M95.9,445.5h-0.4c-1.6-0.2-2.8-1.7-2.6-3.4l24.8-190.2c0.2-1.7,1.7-2.8,3.4-2.6c1.7,0.2,2.8,1.7,2.6,3.4l0,0
	L98.9,442.9C98.7,444.4,97.4,445.5,95.9,445.5z"/>
<rect x="180.2" y="324.4" transform="matrix(0.1288 -0.9917 0.9917 0.1288 -144.0504 490.7598)" class="st2" width="54.1" height="6"/>
<rect x="79.3" y="283.1" transform="matrix(0.1288 -0.9917 0.9917 0.1288 -182.3863 364.6579)" class="st2" width="74.2" height="6"/>
<rect x="141.2" y="387.3" transform="matrix(0.5 -0.866 0.866 0.5 -308.0989 344.3479)" class="st1" width="6" height="103.4"/>
<path class="st1" d="M514.3,294.9c-1.3,0-2.5-0.9-2.9-2.1l-42.4-142.5c-0.5-1.6,0.4-3.3,1.9-3.8c1.6-0.5,3.3,0.4,3.8,1.9
	c0,0,0,0.1,0,0.1L517.2,291c0.5,1.6-0.4,3.3-2,3.7C514.9,294.9,514.6,294.9,514.3,294.9L514.3,294.9z"/>
<polygon class="st3" points="71.6,276.2 182.2,340.1 514.3,149.3 514.3,136.2 403.9,71.2 71.6,263.1 "/>
<polygon class="st4" points="71.6,263.1 182.2,326.9 514.3,136.2 403.9,71.2 "/>
<path class="st5" d="M186.2,216.5l18.2,10.5L350,142.8l-24.2-14l-139.6,80.6c-1.9,1.1-2.6,3.6-1.5,5.6
	C185.1,215.6,185.6,216.1,186.2,216.5z"/>
<g>
	<defs>
		<path id="SVGID_1_" d="M339.8,1.4L202.2,80.9c-2.5,1.4-4.1,4.1-4.1,7v116.8c0,2.9,1.6,5.6,4.1,7l2.1,1.2V86.8L350,2.7l-2.1-1.2
			C345.4,0,342.3,0,339.8,1.4z"/>
	</defs>
	<clipPath id="SVGID_2_">
		<use xlink:href="#SVGID_1_"  style="overflow:visible;"/>
	</clipPath>
	<g class="st6">
		<rect x="198.2" y="191.1" class="st7" width="151.9" height="21.8"/>
		<rect x="198.2" y="188.4" class="st7" width="151.9" height="2.8"/>
		<rect x="198.2" y="185.6" class="st8" width="151.9" height="2.8"/>
		<rect x="198.2" y="182.8" class="st9" width="151.9" height="2.8"/>
		<rect x="198.2" y="180" class="st10" width="151.9" height="2.8"/>
		<rect x="198.2" y="177.2" class="st11" width="151.9" height="2.8"/>
		<rect x="198.2" y="174.5" class="st12" width="151.9" height="2.8"/>
		<rect x="198.2" y="171.7" class="st13" width="151.9" height="2.8"/>
		<rect x="198.2" y="168.9" class="st14" width="151.9" height="2.8"/>
		<rect x="198.2" y="166.1" class="st15" width="151.9" height="2.8"/>
		<rect x="198.2" y="163.4" class="st16" width="151.9" height="2.8"/>
		<rect x="198.2" y="160.6" class="st17" width="151.9" height="2.8"/>
		<rect x="198.2" y="157.8" class="st18" width="151.9" height="2.8"/>
		<rect x="198.2" y="155" class="st19" width="151.9" height="2.8"/>
		<rect x="198.2" y="152.3" class="st20" width="151.9" height="2.8"/>
		<rect x="198.2" y="149.5" class="st21" width="151.9" height="2.8"/>
		<rect x="198.2" y="146.7" class="st22" width="151.9" height="2.8"/>
		<rect x="198.2" y="143.9" class="st23" width="151.9" height="2.8"/>
		<rect x="198.2" y="141.1" class="st24" width="151.9" height="2.8"/>
		<rect x="198.2" y="138.4" class="st25" width="151.9" height="2.8"/>
		<rect x="198.2" y="135.6" class="st26" width="151.9" height="2.8"/>
		<rect x="198.2" y="132.8" class="st27" width="151.9" height="2.8"/>
		<rect x="198.2" y="130" class="st28" width="151.9" height="2.8"/>
		<rect x="198.2" y="127.3" class="st29" width="151.9" height="2.8"/>
		<rect x="198.2" y="124.5" class="st30" width="151.9" height="2.8"/>
		<rect x="198.2" y="121.7" class="st31" width="151.9" height="2.8"/>
		<rect x="198.2" y="118.9" class="st32" width="151.9" height="2.8"/>
		<rect x="198.2" y="116.1" class="st33" width="151.9" height="2.8"/>
		<rect x="198.2" y="113.4" class="st34" width="151.9" height="2.8"/>
		<rect x="198.2" y="110.6" class="st35" width="151.9" height="2.8"/>
		<rect x="198.2" y="107.8" class="st36" width="151.9" height="2.8"/>
		<rect x="198.2" y="105" class="st37" width="151.9" height="2.8"/>
		<rect x="198.2" y="102.3" class="st38" width="151.9" height="2.8"/>
		<rect x="198.2" y="99.5" class="st39" width="151.9" height="2.8"/>
		<rect x="198.2" y="96.7" class="st40" width="151.9" height="2.8"/>
		<rect x="198.2" y="93.9" class="st41" width="151.9" height="2.8"/>
		<rect x="198.2" y="91.2" class="st42" width="151.9" height="2.8"/>
		<rect x="198.2" y="88.4" class="st43" width="151.9" height="2.8"/>
		<rect x="198.2" y="85.6" class="st44" width="151.9" height="2.8"/>
		<rect x="198.2" class="st44" width="151.9" height="85.6"/>
	</g>
</g>
<path class="st7" d="M347.9,1.4c-2.5-1.5-5.6-1.5-8.1,0L202.2,80.9c-1.2,0.7-2.3,1.8-3,3l5.1,2.9L350,2.7L347.9,1.4z"/>
<polygon class="st45" points="252.9,184.9 301.5,156.9 325.8,170.9 277.2,198.9 "/>
<polygon class="st7" points="252.9,184.9 301.5,156.9 316.4,165.5 267.9,193.5 "/>
<polygon class="st7" points="325.8,170.9 325.8,174.4 277.2,202.4 277.2,198.9 "/>
<polygon class="st44" points="252.9,184.9 249.9,186.6 277.2,202.4 277.2,198.9 "/>
<polygon class="st46" points="206.3,87.9 348.1,6 348.1,127.7 206.3,209.6 "/>
<path class="st45" d="M346.2,9.4v117.2l-138,79.6V89L346.2,9.4 M350.1,2.7L204.4,86.8v126.1l145.7-84.1V2.7z"/>
<polygon class="st47" points="313.3,96.3 320.8,91.9 320.8,128.4 313.3,132.7 "/>
<polygon class="st7" points="313.3,117.9 320.8,113.5 320.8,128.4 313.3,132.7 "/>
<polygon class="st47" points="324.9,89.6 332.4,85.2 332.4,121.7 324.9,126 "/>
<polygon class="st7" points="324.9,98.3 332.4,93.9 332.4,121.7 324.9,126 "/>
<path class="st47" d="M238.8,179.1l-19.2,11.1c-1,0.6-2.2,0.2-2.7-0.7c-0.2-0.3-0.3-0.7-0.3-1v-89c0-1.4,0.8-2.8,2-3.5l19.2-11.1
	c1-0.6,2.2-0.2,2.7,0.7c0.2,0.3,0.3,0.7,0.3,1v89.1C240.8,177,240,178.3,238.8,179.1z"/>
<path class="st47" d="M263.4,76.9c-0.5-0.1-0.9-0.6-0.9-1.1c0-0.3,0.2-0.5,0.4-0.7l35.5-20.5c0.5-0.2,1.1,0.1,1.3,0.7
	c0.1,0.4,0,0.8-0.3,1l-35.6,20.5C263.8,76.9,263.6,76.9,263.4,76.9z"/>
<path class="st45" d="M259.3,77.2c0.5,1.9-0.2,3.9-1.7,5.2c-1.5,1.1-3,0.4-3.5-1.4c-0.5-1.9,0.2-3.9,1.7-5.2
	C257.2,74.8,258.8,75.4,259.3,77.2z"/>
<path class="st47" d="M263.4,87.9c-0.5-0.1-0.9-0.6-0.9-1.1c0-0.3,0.2-0.5,0.4-0.7l35.5-20.5c0.5-0.2,1.1,0.1,1.3,0.7
	c0.1,0.4,0,0.8-0.3,1l-35.6,20.5C263.8,87.9,263.6,87.9,263.4,87.9z"/>
<path class="st45" d="M259.3,88.2c0.5,1.9-0.2,3.9-1.7,5.2c-1.5,1-3,0.4-3.5-1.4c-0.5-1.9,0.2-3.9,1.7-5.2
	C257.2,85.8,258.8,86.4,259.3,88.2z"/>
<path class="st47" d="M263.4,98.9c-0.5-0.1-0.9-0.6-0.9-1.1c0-0.3,0.2-0.5,0.4-0.7l35.5-20.5c0.4-0.4,1-0.4,1.4,0
	c0.4,0.4,0.4,1,0,1.4c-0.1,0.1-0.2,0.2-0.4,0.2l-35.6,20.5C263.8,98.8,263.6,98.9,263.4,98.9z"/>
<path class="st45" d="M259.3,99.1c0.5,1.9-0.2,3.9-1.7,5.2c-1.5,1-3,0.4-3.5-1.4c-0.5-1.9,0.2-3.9,1.7-5.2
	C257.2,96.7,258.8,97.3,259.3,99.1z"/>
<path class="st45" d="M256.6,119.6v16.6c0,1.1,0.9,2,2,2c0.4,0,0.7-0.1,1-0.3l14.5-8.3c1.3-0.7,2-2.1,2-3.5v-16.7c0-1.1-0.9-2-2-2
	c-0.4,0-0.7,0.1-1,0.3l-14.5,8.4C257.3,116.8,256.6,118.2,256.6,119.6z"/>
<path class="st4" d="M280.9,105.7v16.5c0,1.1,0.9,2,2,2c0.4,0,0.7-0.1,1-0.3l14.5-8.3c1.3-0.7,2-2.1,2-3.5V95.6c0-1.1-0.9-2-2-2
	c-0.4,0-0.7,0.1-1,0.3l-14.5,8.4C281.7,102.9,280.9,104.2,280.9,105.7z"/>
<path class="st4" d="M256.6,146.6v16.6c0,1.1,0.9,2,2,2c0.4,0,0.7-0.1,1-0.3l14.5-8.3c1.3-0.7,2-2.1,2-3.5v-16.7c0-1.1-0.9-2-2-2
	c-0.4,0-0.7,0.1-1,0.3l-14.5,8.4C257.3,143.8,256.6,145.1,256.6,146.6z"/>
<path class="st45" d="M280.9,132.7v16.6c0,1.1,0.9,2,2,2c0.4,0,0.7-0.1,1-0.3l14.5-8.3c1.3-0.7,2-2.1,2-3.5v-16.7c0-1.1-0.9-2-2-2
	c-0.4,0-0.7,0.1-1,0.3l-14.5,8.4C281.7,129.9,280.9,131.2,280.9,132.7z"/>
<path class="st4" d="M336.9,48.6c1.4,10.5-3.5,23.6-11,29.3s-14.6,1.9-16-8.6s3.5-23.6,11-29.3S335.5,38.1,336.9,48.6z"/>
<path class="st48" d="M324.4,39c1-0.5,2.2-0.7,3.3-0.7c4.3,0,7.4,4,8.3,10.4c0.1,0.6,0.1,1.1,0.2,1.7l-11.8,6.9V39z"/>
<path class="st46" d="M327.6,39.2c3.7,0,6.5,3.7,7.3,9.6c0,0.3,0.1,0.7,0.1,1.1l-9.8,5.7V39.7C326.1,39.4,326.8,39.3,327.6,39.2
	 M327.6,37.3c-1.5,0-2.9,0.4-4.2,1.1v20.5l13.7-8c0-0.8-0.1-1.6-0.2-2.4C335.9,41.3,332.2,37.3,327.6,37.3L327.6,37.3z"/>
<polygon class="st49" points="71.6,263.1 71.6,276.2 182.2,340.1 182.2,326.9 "/>
<polygon class="st45" points="286.4,213.3 365.9,167.5 396,184.7 316.5,230.6 "/>
<polygon class="st7" points="396,184.7 396,188.5 316.5,234.4 316.5,230.6 "/>
<polygon class="st44" points="286.4,213.3 286.4,217.1 316.5,234.4 316.5,230.6 "/>
<path class="st5" d="M278.1,256.1c-6.8,0-20.5,0.1-28.2-6c-3.5-2.8-5.1-5.8-5.5-9c-0.2-1.3,0.7-2.4,2-2.6c0.5-0.1,1,0,1.4,0.3
	L278.1,256.1z"/>
<path class="st5" d="M245.5,238.8l14.7-9.6c0,0,4.9-3.1,12.6,5l-13.5,15.3L245.5,238.8z"/>
<polygon class="st45" points="250.9,237 266.4,227.4 296.2,246.7 279.7,256.4 "/>
<path class="st44" d="M261.7,236c-3.8-1.4-7.8-0.4-10.5,0.8c-1.1,0.5-1.6,1.7-1.1,2.8c0.2,0.4,0.5,0.8,0.9,1l27.6,15.8
	c0.4,0.4,1,0.4,1.4,0s0.4-1,0-1.4C276.9,249.6,270.1,239.2,261.7,236z"/>
<polygon class="st49" points="524,375.5 539.5,312.7 399.3,232.2 411.4,310.9 "/>
<polygon class="st50" points="399.3,232.2 409.4,226.4 550.4,306.1 539.5,312.7 "/>
<polygon class="st51" points="550.4,306.1 534.8,369.2 524,375.5 539.5,312.7 "/>
<path class="st52" d="M432.4,302.8c0,0-53.5-30.3-69.8-12.7s25.9,52.3,71.3,88.2l32.5-49.9L432.4,302.8z"/>
<path class="st48" d="M465.5,304.4c0,0,22.7,47-6.5,69.9c-30.8,24.1-78.6,9.6-137.6-34.9c0,0-17.9-13.1-8.7-26.3
	c11.5-16.5,60.5-1.4,98.4,13L465.5,304.4z"/>
<path class="st53" d="M380.5,223.1l21.8,21.9l31.5-65.2c0,0,11.2-21.8,27.9-12.7c17,9.2,2.2,31,2.2,31l-49.7,76.4c-3,4.7-9.3,6-14,3
	c-1.1-0.7-2-1.6-2.7-2.6l-30.8-41.5L380.5,223.1z"/>
<path class="st54" d="M387,227.2c1.9,1.8,4.8,1.6,6.6-0.2c0.6-0.6,1-1.4,1.2-2.3c1.7-8.9-1.8-19.9-10-28.8c-9-9.7-21-14-30.5-11.8
	c-3.3,0.8-5.3,4.1-4.5,7.4c0.3,1,0.8,2,1.5,2.8C359.9,202.9,387,227.2,387,227.2z"/>
<path class="st45" d="M465.6,295.8c-2.2-14.7-4.3-41.2,2.7-64.7c9.3-31.5-2-52.9-2-52.9c-10-18.1-30.7-15.5-30.7-15.5
	c-36.6,6.5-61.6,24.4-61.6,24.4l5,27.4c0,0-12.8,12.4-12.1,24.7c1.3,24.4,25.9,30.7,13.3,76.2c0,0-2.9,8.3,5.6,13.3
	C399.4,336.6,471.2,333,465.6,295.8z"/>
<line class="st55" x1="405.2" y1="127.6" x2="394.6" y2="122"/>
<path class="st54" d="M433.5,141.9l-30.9-1.9c0,0,5.2,22.5-0.7,32.7c0,0,8.9,4.2,12.1,7.5c6,6.3,12.7,17.3,23.2,13.5
	c5.7-2.1,6.9-13.6,4-21.6c-2.2-5.9-6.5-6.2-8.2-9C430.2,158.5,433.5,141.9,433.5,141.9z"/>
<path class="st53" d="M397,121.6c-0.6,5.1-5.3,8.6-10.3,8c0,0,0,0,0,0c-5.1-0.7-11.8-2.3-8.5-6.3c5.4-6.5,5.8-12.7,10.9-12.1
	C394.1,111.9,397.6,116.5,397,121.6z"/>
<path class="st53" d="M410.6,168c8-0.1,15.7-3.3,21.3-9c-0.5-6.6,1.5-17.2,1.5-17.2l-30.9-1.9c0,0,3.7,16.1,1.3,27.3
	C406.1,167.8,408.4,168.1,410.6,168z"/>
<path class="st54" d="M444,103.2c-0.2-16.9-14.1-30.4-31-30.3l0,0c-16.9,0.2-30.4,14.1-30.3,31l0.3,26.1c-0.1,7.2,2.8,14.2,7.9,19.3
	c5.7,6,14.2,11,23.1,10.9c16.9-0.2,30.4-14.1,30.3-31L444,103.2z"/>
<line class="st55" x1="413" y1="72.9" x2="413" y2="72.9"/>
<path class="st56" d="M432.1,154.4c0,0,20.1-7.1,17.6-51.1c-1.5-26.6-26.2-29.9-30.5-30.6c-27.8-4.4-39.5,4.8-41.2,13
	c0,0-2.3,9,9.7,10.9c2.7,0.4,5.7,1.2,5.6,3.1c-0.4,4.9-4.6,14.7-0.9,26.7l6.5,5C398.9,131.5,401.4,158.4,432.1,154.4z"/>
<ellipse transform="matrix(0.3662 -0.9305 0.9305 0.3662 137.3282 451.1898)" class="st54" cx="399.9" cy="124.8" rx="9.7" ry="6.5"/>
<ellipse transform="matrix(0.9968 -7.974523e-02 7.974523e-02 0.9968 -5.467 35.2121)" class="st5" cx="438.1" cy="86.1" rx="17.9" ry="17.9"/>
<ellipse transform="matrix(0.9968 -7.985093e-02 7.985093e-02 0.9968 -4.9868 35.4318)" class="st56" cx="440.5" cy="80.1" rx="20" ry="20.1"/>
<path class="st7" d="M374,187l5,27.4c0,0-12.8,12.4-12.1,24.7c1.3,24.4,25.9,30.7,13.3,76.2c0,0-2.9,8.3,5.6,13.3
	c2.3,1.4,6.3,2.4,11.2,3c6.9-19.1,7.3-51.5,3-65.7c-10-33.3-2.4-52.2-2.4-52.2L374,187z"/>
<path class="st45" d="M435.6,162.6c0,0,17.1-3.9,26.2-0.1s12,18,7.4,37C469.3,199.5,451.7,167.2,435.6,162.6z"/>
<path class="st54" d="M308.4,248.1l22.7,21l29-66.4c0,0,10.3-22.2,27.4-13.8c17.3,8.5,3.4,30.9,3.4,30.9l-46.7,78.3
	c-2.9,4.8-9.1,6.4-13.9,3.5c-1.1-0.6-2-1.5-2.8-2.5l-32.4-40.2L308.4,248.1z"/>
<path class="st54" d="M302.5,265.1c2,1.7,4.9,1.4,6.6-0.5c0.6-0.7,0.9-1.5,1.1-2.3c1.3-9-2.6-19.9-11.1-28.4
	c-9.3-9.4-21.5-13.2-30.9-10.6c-3.2,0.9-5.1,4.3-4.2,7.6c0.3,1,0.9,2,1.6,2.7C274.5,241.8,302.5,265.1,302.5,265.1z"/>
<path class="st53" d="M393.8,194.3c-5.5-5.4-13.9-5.7-17.2-4.4c0,0-7.2,1.9-14.8,9.7c-0.6,1-1.2,2.1-1.8,3.1l-10,23
	c3.2,4.6,11.4,13.5,27.4,16.7l13.5-22.6C390.9,219.9,400.4,204.4,393.8,194.3z"/>
<path class="st45" d="M379,184.6c0,0-19.2,5-28.4,32.9c0,0,8,17.2,33.5,20.3c0,0,18.7-20.6,17.2-37.1S383.8,182.6,379,184.6z"/>
<path class="st57" d="M344.8,452.6l-27.3-9.6c-3.8-1.3-8-0.9-11.5,1.3c-2,1.3-4.1,2.7-5.3,3.5c-2.8,2.1-2,6.4-2,6.4
	c0,2.1,1.3,3.9,3.3,4.6l47.8,18.6c2.8,1.1,5.9,0.6,8.2-1.3l9.5-7.8c2.1-1.5,2.5-4.5,0.9-6.5c-0.1-0.1-0.1-0.2-0.2-0.2
	c-1.3-1.7-2.1-3.7-2.1-5.8l-0.9-14.1l-21.4,2L344.8,452.6z"/>
<path class="st48" d="M367.6,468.4l-9.5,7.8c-2.3,1.9-5.5,2.3-8.2,1.3L302,458.8c-1.1-0.4-2.1-1.2-2.7-2.3l-0.1,3.5
	c0,2.1,1.3,3.9,3.3,4.6l47.9,18.6c2.8,1.1,5.9,0.6,8.2-1.3l9.5-7.8c2.1-1.5,2.5-4.4,0.9-6.5c-0.1-0.2-0.3-0.3-0.4-0.5
	C368.4,467.7,368,468,367.6,468.4z"/>
<path class="st46" d="M316.3,454.5c-0.8,0.1-1.5-0.5-1.6-1.3c0-0.3,0-0.6,0.1-0.8c4.4-8.9,12.1-9.2,12.4-9.2c0.8,0,1.5,0.6,1.5,1.4
	c0,0,0,0,0,0c0,0.8-0.6,1.5-1.4,1.5c-0.3,0-6.3,0.3-9.8,7.5C317.2,454.2,316.8,454.5,316.3,454.5z"/>
<path class="st46" d="M323.6,457c-0.8,0.1-1.5-0.5-1.6-1.3c0-0.3,0-0.6,0.1-0.8c4.4-8.9,12.1-9.2,12.4-9.2c0.8,0,1.5,0.6,1.5,1.4
	c0,0,0,0,0,0c0,0.8-0.6,1.5-1.4,1.5c-0.3,0-6.3,0.3-9.8,7.5C324.6,456.6,324.1,457,323.6,457z"/>
<path class="st46" d="M331.3,459.7c-0.8,0.1-1.5-0.5-1.6-1.3c0-0.3,0-0.6,0.1-0.8c4.4-8.9,12.1-9.2,12.4-9.2c0.8,0,1.5,0.6,1.5,1.4
	s-0.6,1.5-1.4,1.5c-0.3,0-6.3,0.3-9.8,7.5C332.2,459.4,331.8,459.7,331.3,459.7z"/>
<path class="st48" d="M334.9,398l6.4,50.7c0,0,11.2,7.9,26.7-0.3l-3.7-53.5L334.9,398z"/>
<path class="st48" d="M406.4,361.1l6.4,50.7c0,0,11.2,7.9,26.7-0.3l-3.7-53.5L406.4,361.1z"/>
<path class="st57" d="M415.6,417.6l-27.3-9.6c-3.8-1.4-8-0.9-11.5,1.3c-2,1.3-4.1,2.7-5.3,3.5c-2.8,2.1-2,6.4-2,6.4
	c0,2.1,1.3,3.9,3.3,4.6l47.9,18.6c2.8,1.1,5.9,0.6,8.2-1.2l9.5-7.8c2.1-1.5,2.5-4.5,0.9-6.5c-0.1-0.1-0.1-0.2-0.2-0.2
	c-1.3-1.7-2.1-3.7-2.1-5.8l-0.9-14.1l-21.4,2L415.6,417.6z"/>
<path class="st48" d="M438.4,433.4l-9.5,7.8c-2.3,1.9-5.5,2.3-8.2,1.3l-47.9-18.6c-1.1-0.4-2.1-1.2-2.7-2.3l-0.1,3.5
	c0,2.1,1.3,3.9,3.3,4.6l47.9,18.6c2.8,1.1,5.9,0.6,8.2-1.3l9.5-7.9c2.1-1.5,2.5-4.4,0.9-6.5c-0.1-0.2-0.3-0.3-0.4-0.5
	C439.1,432.7,438.8,433.1,438.4,433.4z"/>
<path class="st46" d="M387,419.6c-0.8,0.1-1.5-0.5-1.6-1.3c0-0.3,0-0.6,0.1-0.8c4.4-8.9,12.1-9.2,12.4-9.2c0.8,0,1.5,0.6,1.5,1.4
	c0,0,0,0,0,0c0,0.8-0.6,1.5-1.4,1.5c-0.3,0-6.3,0.3-9.8,7.5C388,419.2,387.5,419.5,387,419.6z"/>
<path class="st46" d="M394.4,422c-0.8,0.1-1.5-0.5-1.6-1.3c0-0.3,0-0.6,0.1-0.8c4.4-8.9,12.1-9.2,12.4-9.2c0.8,0,1.5,0.6,1.5,1.4
	c0,0,0,0,0,0c0,0.8-0.6,1.5-1.4,1.5c-0.3,0-6.3,0.3-9.8,7.5C395.3,421.7,394.9,422,394.4,422z"/>
<path class="st46" d="M402.1,424.8c-0.8,0.1-1.5-0.5-1.6-1.3c0-0.3,0-0.6,0.1-0.8c4.4-8.9,12.1-9.2,12.4-9.2c0.8,0,1.5,0.6,1.5,1.4
	s-0.6,1.5-1.4,1.5c-0.3,0-6.3,0.3-9.8,7.5C403,424.4,402.6,424.7,402.1,424.8z"/>
<path class="st1" d="M553.4,482.2c-0.9,0-1.6-0.6-1.9-1.4l-36.4-113c-0.3-1.1,0.2-2.2,1.3-2.5c1.1-0.3,2.2,0.2,2.5,1.3l36.4,113
	c0.3,1.1-0.2,2.2-1.3,2.5C553.8,482.2,553.6,482.2,553.4,482.2L553.4,482.2z"/>
<path class="st50" d="M422.1,295.8l-35.6,143.8l13.2,7.6l124.2-71.7l35.7-144.3c0.5-2.1-0.4-4.3-2.3-5.4l-5.2-3
	c-3-1.7-6.7-1.7-9.7,0l-115.8,66.9C424.4,291,422.8,293.2,422.1,295.8z"/>
<path class="st58" d="M427.6,294.3l4.9,2.8c2.2,1.3,3.4,3.9,2.8,6.4l-35.5,143.6l-13.2-7.6l35.3-142.9c0.5-2.1,2.6-3.3,4.7-2.8
	C427,294,427.3,294.2,427.6,294.3z"/>
<path class="st51" d="M435.7,301.8l-36,145.4l124.2-71.7L559.4,232c0.3-1-0.4-2.1-1.4-2.3c-0.5-0.1-1,0-1.4,0.2l-118.1,68.2
	C437.1,298.9,436.1,300.2,435.7,301.8z"/>
<path class="st1" d="M263.1,482.2c-1.1,0-2-0.9-2-2c0-0.3,0.1-0.5,0.2-0.8l38.5-89.2c0.4-1,1.6-1.5,2.6-1.1c1,0.4,1.5,1.6,1.1,2.6
	c0,0,0,0,0,0L265,481C264.7,481.7,263.9,482.2,263.1,482.2z"/>
<rect x="271.2" y="407.7" transform="matrix(0.3965 -0.918 0.918 0.3965 -198.926 516.7971)" class="st2" width="44.7" height="4"/>
<path class="st1" d="M399.9,570.1c-1.1,0-1.9-0.8-2-1.9l-8.6-130.9c-0.1-1.1,0.8-2.1,1.9-2.1s2.1,0.8,2.1,1.9l8.6,130.9
	c0.1,1.1-0.8,2.1-1.9,2.1H399.9z"/>
<rect x="394.3" y="434.2" transform="matrix(0.9976 -6.982913e-02 6.982913e-02 0.9976 -30.6999 28.7795)" class="st1" width="4" height="38.7"/>
<rect x="394.3" y="434.2" transform="matrix(0.9976 -6.982913e-02 6.982913e-02 0.9976 -30.6999 28.7795)" class="st2" width="4" height="38.7"/>
<path class="st50" d="M264.2,310.2l8.2-4.7c1.2-0.7,2.6-0.7,3.8,0l139.1,78.6l-15.6,63.1l-10.8,6.2l-108.5-62.2
	c-2.6-1.5-4.3-4.1-4.8-7L264.2,310.2z"/>
<path class="st58" d="M388.9,453.5l15.5-62.8l-140.2-80.4l11.4,74c0.4,2.9,2.2,5.5,4.8,6.9L388.9,453.5z"/>
<polygon class="st51" points="415.3,384.1 399.7,447.2 388.9,453.5 404.4,390.7 "/>
</svg>
