<?xml version="1.0" encoding="utf-8"?>
<!-- Generator: Adobe Illustrator 22.0.1, SVG Export Plug-In . SVG Version: 6.00 Build 0)  -->
<svg version="1.1" id="Layer_1" xmlns="http://www.w3.org/2000/svg" xmlns:xlink="http://www.w3.org/1999/xlink" x="0px" y="0px"
	 viewBox="0 0 659.1 664.5" style="enable-background:new 0 0 659.1 664.5;" xml:space="preserve">
<style type="text/css">
	.st0{opacity:0.3;fill:#F7C745;enable-background:new    ;}
	.st1{fill:#15383F;}
	.st2{fill:#A6DCE7;}
	.st3{fill:url(#SVGID_1_);}
	.st4{fill:url(#SVGID_2_);}
	.st5{fill:#EA831C;}
	.st6{fill:none;stroke:#FFFFFF;stroke-width:6;stroke-miterlimit:10;}
	.st7{fill:#3B8A9D;}
	.st8{fill:url(#SVGID_3_);}
	.st9{fill:#184B54;}
	.st10{fill:url(#SVGID_4_);}
	.st11{fill:url(#SVGID_5_);}
	.st12{fill:url(#SVGID_6_);}
	.st13{fill:#F7C745;}
</style>
<title>33_Spotlight</title>
<g>
	<g id="Layer_2_1_">
		<polygon class="st0" points="84.9,224.4 162.8,563.4 583.6,563.4 170.4,147.3 		"/>
		<polygon class="st0" points="574.7,224.4 496.7,563.4 75.9,563.4 489.2,147.3 		"/>
		<polygon class="st1" points="85.9,1.7 85,81.5 107.9,95 108.8,15.2 		"/>
		<polygon class="st2" points="107.9,95 110.9,93.4 111.8,13.6 108.8,15.2 		"/>
		
			<linearGradient id="SVGID_1_" gradientUnits="userSpaceOnUse" x1="216.6587" y1="702.42" x2="163.1087" y2="609.66" gradientTransform="matrix(0.93 0.34 0.2 -1 -226.5328 724.1493)">
			<stop  offset="1.000000e-02" style="stop-color:#3B8A9D"/>
			<stop  offset="1" style="stop-color:#15383F"/>
		</linearGradient>
		<path class="st3" d="M88,228.8l82.4-81.6L99.8,63.4l0,0c-7.3-7.9-18.3-12.2-32.9-8.8c-26.2,6-51.8,32.4-57.1,58.8
			c-2.5,12.2-0.2,22.3,5.5,29l0,0l0.1,0.1l0.3,0.4L88,228.8z"/>
		<path class="st1" d="M143.4,115.2l-2.7-3.2c-4.4-0.9-8.8-0.9-13.2-0.1c-25.1,4-55.4,28.8-67.5,55.3c-3.8,8.2-5.5,15.8-5.1,22.3
			l2.7,3.2c-1.4-6.7,0.2-15.2,4.5-24.6c11.9-25.9,41.4-50.1,65.8-54C133.9,113.2,139.2,113.6,143.4,115.2z"/>
		
			<linearGradient id="SVGID_2_" gradientUnits="userSpaceOnUse" x1="280.8223" y1="535.2228" x2="356.1254" y2="535.2228" gradientTransform="matrix(0.98 0.26 0.33 -0.93 -357.7519 603.8343)">
			<stop  offset="0" style="stop-color:#EA831C"/>
			<stop  offset="0.22" style="stop-color:#EDAB26"/>
			<stop  offset="0.6" style="stop-color:#F8CB52"/>
			<stop  offset="1" style="stop-color:#FFDF8F"/>
		</linearGradient>
		<path class="st4" d="M172.5,181.8c-11.4,24.8-39.7,48-63.2,51.8s-33.3-13.4-21.8-38.2s39.7-48,63.2-51.8S183.9,157,172.5,181.8z"
			/>
		<path class="st5" d="M163.4,143.9c3.5,6.9,2.9,17.1-2.6,29c-11.4,24.8-39.7,48-63.2,51.8c-4.2,0.8-8.5,0.7-12.7-0.2
			c3.8,7.5,12.2,11.1,24.4,9.2c23.5-3.8,51.8-26.9,63.2-51.8C181.5,162.1,177.3,147.2,163.4,143.9z"/>
		<path class="st6" d="M172.5,181.8c-11.4,24.8-39.7,48-63.2,51.8s-33.3-13.4-21.8-38.2s39.7-48,63.2-51.8S183.9,157,172.5,181.8z"
			/>
		<polygon class="st1" points="15.5,120.6 38.4,134.2 39.3,54.4 16.4,40.8 		"/>
		<polygon class="st2" points="38.4,134.2 41.3,132.5 42.2,52.7 39.3,54.4 		"/>
		<polygon class="st7" points="88.9,0 16.4,40.8 39.3,54.4 111.8,13.6 		"/>
		<polygon class="st2" points="39.3,54.4 111.8,13.6 111.7,17.5 39.2,58.3 		"/>
		
			<linearGradient id="SVGID_3_" gradientUnits="userSpaceOnUse" x1="38.9461" y1="549.8254" x2="24.5961" y2="580.7354" gradientTransform="matrix(0.9996 2.896841e-02 2.896841e-02 -0.9996 -30.5576 679.1819)">
			<stop  offset="1.000000e-02" style="stop-color:#3B8A9D"/>
			<stop  offset="1" style="stop-color:#184B54"/>
		</linearGradient>
		<path class="st8" d="M30.4,107.4c-4-8.2-11.9-12.3-17.6-9.1l-7.5,4.1l0.2,0.4c-4,4.1-4.6,12.1-1.1,19.3c3.4,7,9.6,11,14.9,10
			l0.2,0.4l7.6-4.1l0,0l0.3-0.2C33.1,124.9,34.4,115.6,30.4,107.4z"/>
		<path class="st1" d="M19.8,132.2c5.7-3.2,7.1-12.6,3.1-20.8s-11.9-12.3-17.6-9.1s-7.1,12.6-3.1,20.8S14.1,135.5,19.8,132.2z"/>
		<polygon class="st9" points="573.2,1.7 574,81.5 551.1,95 550.3,15.2 		"/>
		<polygon class="st1" points="551.1,95 548.2,93.4 547.3,13.6 550.3,15.2 		"/>
		
			<linearGradient id="SVGID_4_" gradientUnits="userSpaceOnUse" x1="-1205.5959" y1="127.7881" x2="-1167.036" y2="243.5681" gradientTransform="matrix(-0.93 0.34 -0.2 -1 -492.5342 724.1493)">
			<stop  offset="1.000000e-02" style="stop-color:#3B8A9D"/>
			<stop  offset="1" style="stop-color:#15383F"/>
		</linearGradient>
		<path class="st10" d="M571,228.8l-82.4-81.6l70.6-83.9l0,0c7.3-7.9,18.3-12.2,32.9-8.8c26.2,6,51.8,32.4,57.1,58.8
			c2.5,12.2,0.2,22.3-5.5,29l0,0l-0.1,0.1l-0.3,0.4L571,228.8z"/>
		<path class="st1" d="M515.6,115.2l2.7-3.2c4.4-0.9,8.8-0.9,13.2-0.1c25.1,4,55.4,28.8,67.5,55.3c3.8,8.2,5.5,15.8,5.1,22.3
			l-2.7,3.2c1.3-6.7-0.2-15.2-4.5-24.6c-11.9-25.9-41.4-50.1-65.8-54C525.1,113.2,519.9,113.6,515.6,115.2z"/>
		
			<linearGradient id="SVGID_5_" gradientUnits="userSpaceOnUse" x1="-924.5297" y1="208.481" x2="-1008.0397" y2="145.531" gradientTransform="matrix(-0.98 0.26 -0.33 -0.93 -361.3151 603.8343)">
			<stop  offset="0" style="stop-color:#EA831C"/>
			<stop  offset="0.22" style="stop-color:#EDAB26"/>
			<stop  offset="0.6" style="stop-color:#F8CB52"/>
			<stop  offset="1" style="stop-color:#FFDF8F"/>
		</linearGradient>
		<path class="st11" d="M486.5,181.8c11.4,24.8,39.7,48,63.2,51.8s33.3-13.4,21.8-38.2s-39.7-48-63.2-51.8S475.1,157,486.5,181.8z"
			/>
		<path class="st5" d="M495.7,143.9c-3.5,6.9-2.9,17.1,2.6,29c11.4,24.8,39.7,48,63.2,51.8c4.2,0.8,8.5,0.7,12.7-0.2
			c-3.8,7.5-12.2,11.1-24.4,9.2c-23.5-3.8-51.8-26.9-63.2-51.8C477.5,162.1,481.8,147.2,495.7,143.9z"/>
		<path class="st6" d="M486.5,181.8c11.4,24.8,39.7,48,63.2,51.8s33.3-13.4,21.8-38.2s-39.7-48-63.2-51.8S475.1,157,486.5,181.8z"/>
		<polygon class="st2" points="643.6,120.6 620.7,134.2 619.8,54.4 642.7,40.8 		"/>
		<polygon class="st1" points="620.7,134.2 617.7,132.5 616.9,52.7 619.8,54.4 		"/>
		<polygon class="st7" points="570.2,0 642.7,40.8 619.8,54.4 547.3,13.6 		"/>
		<polygon class="st1" points="619.8,54.4 547.3,13.6 547.3,17.5 619.9,58.3 		"/>
		
			<linearGradient id="SVGID_6_" gradientUnits="userSpaceOnUse" x1="-1337.6052" y1="509.7426" x2="-1351.9552" y2="540.6525" gradientTransform="matrix(-1 3.000000e-02 -3.000000e-02 -1 -687.4395 680.3741)">
			<stop  offset="1.000000e-02" style="stop-color:#3B8A9D"/>
			<stop  offset="1" style="stop-color:#184B54"/>
		</linearGradient>
		<path class="st12" d="M628.6,107.4c4-8.2,11.8-12.3,17.5-9.1l7.5,4.1l-0.2,0.4c4,4.1,4.6,12.1,1.1,19.3c-3.4,7-9.6,11-14.9,10
			l-0.2,0.4l-7.5-4.1l0,0l-0.3-0.2C626,124.9,624.6,115.6,628.6,107.4z"/>
		<path class="st2" d="M639.2,132.2c-5.7-3.2-7.1-12.6-3.1-20.8s11.8-12.3,17.5-9.1s7.1,12.6,3.1,20.8S644.9,135.5,639.2,132.2z"/>
		<ellipse class="st13" cx="329.5" cy="588.8" rx="269.5" ry="75.7"/>
	</g>
</g>
</svg>
